{"glyphs":{"0":{"ha":776,"x_min":63,"x_max":714,"o":"m 389 -14 q 218 47 292 -14 q 103 224 144 108 q 63 504 63 340 q 103 781 63 667 q 217 954 143 894 q 388 1014 292 1014 q 558 954 485 1014 q 673 781 632 894 q 714 503 714 667 q 673 224 714 339 q 558 47 632 108 q 389 -14 485 -14 m 388 79 q 501 126 454 79 q 576 268 549 174 q 603 506 603 363 q 576 739 603 647 q 502 876 550 831 q 388 921 454 921 q 274 876 322 921 q 200 739 226 831 q 174 506 174 647 q 200 267 174 363 q 274 126 226 172 q 388 79 322 79 z "},"1":{"ha":475,"x_min":31,"x_max":367,"o":"m 264 0 l 264 892 l 289 878 q 229 812 268 844 q 140 755 190 779 q 31 719 89 731 l 31 824 q 142 860 92 835 q 231 922 193 886 q 290 1000 268 958 l 367 1000 l 367 0 l 264 0 z "},"2":{"ha":656,"x_min":47,"x_max":617,"o":"m 63 0 l 63 90 q 261 310 179 213 q 394 487 343 408 q 469 631 446 565 q 493 751 493 696 q 452 876 493 832 q 336 921 411 921 q 207 868 254 921 q 154 717 160 815 l 47 717 q 133 933 54 853 q 342 1014 211 1014 q 533 944 463 1014 q 603 750 603 874 q 576 607 603 681 q 494 451 549 533 q 358 272 440 368 q 165 60 276 175 l 140 92 l 617 92 l 617 0 l 63 0 z "},"3":{"ha":679,"x_min":49,"x_max":631,"o":"m 346 -14 q 194 24 260 -14 q 92 132 129 61 q 49 301 54 203 l 154 301 q 213 136 163 193 q 346 79 263 79 q 472 130 426 79 q 518 269 518 181 q 470 422 518 365 q 343 479 422 479 l 246 479 l 246 568 l 342 568 q 460 615 417 568 q 503 746 503 663 q 460 876 503 832 q 346 921 418 921 q 223 870 272 921 q 168 724 174 819 l 61 724 q 102 879 65 814 q 203 979 139 944 q 349 1014 268 1014 q 487 983 428 1014 q 579 894 546 953 q 613 756 613 836 q 583 626 613 681 q 501 542 553 572 q 381 513 450 513 l 372 542 q 508 508 450 542 q 598 412 565 474 q 631 267 631 350 q 594 119 631 183 q 494 21 558 56 q 346 -14 431 -14 z "},"4":{"ha":699,"x_min":36,"x_max":665,"o":"m 440 0 l 440 257 l 442 285 l 442 832 l 465 831 l 136 276 l 106 318 l 665 318 l 665 226 l 36 226 l 36 304 l 446 1000 l 546 1000 l 546 0 l 440 0 z "},"5":{"ha":690,"x_min":57,"x_max":638,"o":"m 349 -14 q 142 67 218 -14 q 57 281 67 147 l 165 281 q 222 132 174 185 q 347 79 269 79 q 475 135 424 79 q 526 318 526 192 q 476 503 526 444 q 342 563 425 563 q 239 534 281 563 q 183 467 197 506 l 99 467 l 131 1000 l 590 1000 l 590 908 l 200 908 l 228 942 l 206 563 l 183 560 q 249 622 203 596 q 364 647 296 647 q 505 610 443 647 q 602 499 567 572 q 638 318 638 426 q 601 136 638 210 q 501 24 565 63 q 349 -14 436 -14 z "},"6":{"ha":713,"x_min":63,"x_max":665,"o":"m 374 -14 q 142 113 221 -14 q 63 488 63 239 q 100 777 63 660 q 210 954 138 894 q 388 1014 283 1014 q 572 943 503 1014 q 650 744 640 872 l 542 744 q 494 876 536 831 q 382 921 451 921 q 225 816 276 921 q 174 492 174 711 l 174 425 l 151 429 q 197 533 163 490 q 282 600 231 576 q 394 624 333 624 q 537 583 476 624 q 631 472 597 543 q 665 303 665 400 q 628 135 665 207 q 526 25 592 64 q 374 -14 461 -14 m 378 79 q 506 138 458 79 q 553 304 553 197 q 506 474 553 415 q 374 533 460 533 q 239 476 290 533 q 188 315 188 418 q 212 190 188 243 q 279 108 236 136 q 378 79 322 79 z "},"7":{"ha":631,"x_min":28,"x_max":604,"o":"m 190 0 q 283 472 207 236 q 517 949 358 707 l 535 908 l 28 908 l 28 1000 l 604 1000 l 604 925 q 446 610 508 764 q 351 306 383 457 q 308 0 318 156 l 190 0 z "},"8":{"ha":693,"x_min":53,"x_max":640,"o":"m 346 -14 q 191 22 257 -14 q 89 122 125 58 q 53 269 53 186 q 83 408 53 346 q 164 506 113 471 q 279 542 215 542 l 281 513 q 174 544 221 513 q 100 632 126 576 q 74 756 74 688 q 108 892 74 833 q 203 982 142 950 q 347 1014 265 1014 q 490 982 429 1014 q 585 892 551 950 q 619 756 619 833 q 593 633 619 688 q 519 545 567 578 q 411 513 472 513 l 414 542 q 529 506 478 542 q 610 408 581 471 q 640 269 640 346 q 604 122 640 186 q 502 22 568 58 q 346 -14 436 -14 m 346 79 q 481 132 432 79 q 529 276 529 185 q 481 424 529 368 q 346 479 433 479 q 212 424 260 479 q 164 276 164 368 q 213 132 164 185 q 346 79 261 79 m 346 568 q 467 617 422 568 q 511 743 511 665 q 466 874 511 826 q 346 921 421 921 q 227 874 272 921 q 182 743 182 826 q 227 617 182 665 q 346 568 272 568 z "},"9":{"ha":721,"x_min":51,"x_max":651,"o":"m 342 -14 q 203 21 264 -14 q 107 122 143 56 q 64 283 71 188 l 172 283 q 227 128 179 176 q 347 79 275 79 q 436 102 400 79 q 496 176 472 125 q 529 308 519 226 q 539 508 539 390 l 539 575 l 563 582 q 517 478 551 522 q 432 411 483 435 q 319 388 381 388 q 178 427 239 388 q 85 538 118 467 q 51 701 51 608 q 88 867 51 797 q 189 976 124 938 q 342 1014 254 1014 q 574 888 496 1014 q 651 510 651 761 q 617 215 651 331 q 515 42 583 99 q 342 -14 446 -14 m 342 478 q 475 531 425 478 q 525 690 525 583 q 501 813 525 761 q 435 892 478 864 q 336 921 393 921 q 209 863 256 921 q 163 699 163 804 q 209 537 163 596 q 342 478 256 478 z "},"A":{"ha":810,"x_min":42,"x_max":768,"o":"m 42 0 l 339 1000 l 428 1000 l 140 0 l 42 0 m 661 0 l 376 1000 l 471 1000 l 768 0 l 661 0 m 193 393 l 613 393 l 613 301 l 193 301 l 193 393 z "},"Á":{"ha":810,"x_min":42,"x_max":768,"o":"m 42 0 l 339 1000 l 428 1000 l 140 0 l 42 0 m 661 0 l 376 1000 l 471 1000 l 768 0 l 661 0 m 193 393 l 613 393 l 613 301 l 193 301 l 193 393 m 394 1101 l 304 1101 l 446 1319 l 590 1319 l 394 1101 z "},"Ă":{"ha":810,"x_min":42,"x_max":768,"o":"m 42 0 l 339 1000 l 428 1000 l 140 0 l 42 0 m 661 0 l 376 1000 l 471 1000 l 768 0 l 661 0 m 193 393 l 613 393 l 613 301 l 193 301 l 193 393 m 404 1096 q 301 1122 349 1096 q 226 1197 254 1147 q 199 1319 199 1247 l 272 1319 q 308 1217 272 1253 q 404 1181 343 1181 q 501 1217 467 1181 q 536 1319 536 1253 l 611 1319 q 583 1197 611 1247 q 508 1122 554 1147 q 404 1096 463 1096 z "},"Ǎ":{"ha":810,"x_min":42,"x_max":768,"o":"m 42 0 l 339 1000 l 428 1000 l 140 0 l 42 0 m 661 0 l 376 1000 l 471 1000 l 768 0 l 661 0 m 193 393 l 613 393 l 613 301 l 193 301 l 193 393 m 351 1101 l 176 1319 l 258 1319 l 453 1129 l 357 1129 l 551 1319 l 632 1319 l 457 1101 l 351 1101 z "},"Â":{"ha":810,"x_min":42,"x_max":768,"o":"m 42 0 l 339 1000 l 428 1000 l 140 0 l 42 0 m 661 0 l 376 1000 l 471 1000 l 768 0 l 661 0 m 193 393 l 613 393 l 613 301 l 193 301 l 193 393 m 175 1101 l 350 1319 l 456 1319 l 631 1101 l 550 1101 l 356 1292 l 451 1292 l 257 1101 l 175 1101 z "},"Ä":{"ha":810,"x_min":42,"x_max":768,"o":"m 42 0 l 339 1000 l 428 1000 l 140 0 l 42 0 m 661 0 l 376 1000 l 471 1000 l 768 0 l 661 0 m 193 393 l 613 393 l 613 301 l 193 301 l 193 393 m 488 1167 l 488 1292 l 610 1292 l 610 1167 l 488 1167 m 199 1167 l 199 1292 l 321 1292 l 321 1167 l 199 1167 z "},"À":{"ha":810,"x_min":42,"x_max":768,"o":"m 42 0 l 339 1000 l 428 1000 l 140 0 l 42 0 m 661 0 l 376 1000 l 471 1000 l 768 0 l 661 0 m 193 393 l 613 393 l 613 301 l 193 301 l 193 393 m 415 1101 l 219 1319 l 364 1319 l 506 1101 l 415 1101 z "},"Ā":{"ha":810,"x_min":42,"x_max":768,"o":"m 42 0 l 339 1000 l 428 1000 l 140 0 l 42 0 m 661 0 l 376 1000 l 471 1000 l 768 0 l 661 0 m 193 393 l 613 393 l 613 301 l 193 301 l 193 393 m 193 1188 l 193 1260 l 617 1260 l 617 1188 l 193 1188 z "},"Ą":{"ha":810,"x_min":42,"x_max":771,"o":"m 42 0 l 339 1000 l 428 1000 l 140 0 l 42 0 m 661 0 l 376 1000 l 471 1000 l 768 0 l 661 0 m 193 393 l 613 393 l 613 301 l 193 301 l 193 393 m 672 -300 q 590 -270 619 -300 q 561 -193 561 -240 q 611 -75 561 -132 q 738 24 661 -18 l 768 0 q 671 -89 707 -44 q 635 -183 635 -133 q 648 -222 635 -208 q 681 -235 661 -235 q 731 -212 708 -235 l 771 -262 q 728 -290 751 -281 q 672 -300 704 -300 z "},"Å":{"ha":810,"x_min":42,"x_max":768,"o":"m 42 0 l 339 1000 l 428 1000 l 140 0 l 42 0 m 661 0 l 376 1000 l 471 1000 l 768 0 l 661 0 m 193 393 l 613 393 l 613 301 l 193 301 l 193 393 m 404 1071 q 297 1115 340 1071 q 254 1221 254 1158 q 297 1326 254 1282 q 404 1369 340 1369 q 510 1326 468 1369 q 553 1221 553 1282 q 510 1115 553 1158 q 404 1071 468 1071 m 404 1133 q 465 1159 442 1133 q 488 1221 488 1185 q 464 1282 488 1257 q 404 1307 440 1307 q 343 1282 367 1307 q 319 1221 319 1257 q 343 1159 319 1185 q 404 1133 367 1133 z "},"Ã":{"ha":810,"x_min":42,"x_max":768,"o":"m 42 0 l 339 1000 l 428 1000 l 140 0 l 42 0 m 661 0 l 376 1000 l 471 1000 l 768 0 l 661 0 m 193 393 l 613 393 l 613 301 l 193 301 l 193 393 m 501 1121 q 437 1135 464 1121 q 388 1169 410 1150 q 347 1202 367 1188 q 301 1217 326 1217 q 258 1197 275 1217 q 242 1135 242 1178 l 172 1135 q 190 1223 172 1188 q 239 1276 207 1258 q 311 1294 271 1294 q 376 1280 350 1294 q 423 1247 403 1265 q 463 1213 443 1228 q 507 1199 482 1199 q 551 1218 535 1199 q 568 1281 568 1238 l 638 1281 q 620 1194 638 1229 q 572 1140 603 1158 q 501 1121 540 1121 z "},"Æ":{"ha":1103,"x_min":42,"x_max":1021,"o":"m 42 0 l 339 1000 l 431 1000 l 142 0 l 42 0 m 546 0 l 546 1000 l 651 1000 l 651 0 l 546 0 m 604 0 l 604 93 l 1021 93 l 1021 0 l 604 0 m 256 475 l 256 567 l 981 567 l 981 475 l 256 475 m 365 907 l 365 1000 l 1010 1000 l 1010 907 l 365 907 z "},"B":{"ha":738,"x_min":108,"x_max":685,"o":"m 174 0 l 174 88 l 397 88 q 528 139 481 88 q 576 276 576 190 q 526 425 576 369 q 388 481 475 481 l 174 481 l 174 567 l 376 567 q 508 613 461 567 q 554 743 554 658 q 510 869 554 825 q 383 913 465 913 l 174 913 l 174 1000 l 388 1000 q 586 933 513 1000 q 660 751 660 867 q 630 625 660 679 q 547 542 600 571 q 421 513 493 513 l 425 542 q 560 507 501 542 q 651 411 618 472 q 685 269 685 350 q 649 128 685 189 q 551 33 614 67 q 403 0 488 0 l 174 0 m 108 0 l 108 1000 l 213 1000 l 213 0 l 108 0 z "},"C":{"ha":828,"x_min":63,"x_max":771,"o":"m 436 -14 q 283 22 351 -14 q 165 126 214 58 q 89 289 115 194 q 63 501 63 383 q 89 714 63 619 q 165 875 115 808 q 283 978 214 942 q 435 1014 351 1014 q 603 967 531 1014 q 720 836 676 921 q 771 635 764 751 l 665 635 q 597 844 657 771 q 436 918 536 918 q 294 869 354 918 q 203 726 235 819 q 171 503 171 633 q 203 276 171 371 q 294 132 235 182 q 436 82 354 82 q 597 156 536 82 q 665 365 658 231 l 771 365 q 721 165 765 250 q 604 33 676 79 q 436 -14 532 -14 z "},"Ć":{"ha":828,"x_min":63,"x_max":771,"o":"m 436 -14 q 283 22 351 -14 q 165 126 214 58 q 89 289 115 194 q 63 501 63 383 q 89 714 63 619 q 165 875 115 808 q 283 978 214 942 q 435 1014 351 1014 q 603 967 531 1014 q 720 836 676 921 q 771 635 764 751 l 665 635 q 597 844 657 771 q 436 918 536 918 q 294 869 354 918 q 203 726 235 819 q 171 503 171 633 q 203 276 171 371 q 294 132 235 182 q 436 82 354 82 q 597 156 536 82 q 665 365 658 231 l 771 365 q 721 165 765 250 q 604 33 676 79 q 436 -14 532 -14 m 422 1101 l 332 1101 l 474 1319 l 618 1319 l 422 1101 z "},"Č":{"ha":828,"x_min":63,"x_max":771,"o":"m 436 -14 q 283 22 351 -14 q 165 126 214 58 q 89 289 115 194 q 63 501 63 383 q 89 714 63 619 q 165 875 115 808 q 283 978 214 942 q 435 1014 351 1014 q 603 967 531 1014 q 720 836 676 921 q 771 635 764 751 l 665 635 q 597 844 657 771 q 436 918 536 918 q 294 869 354 918 q 203 726 235 819 q 171 503 171 633 q 203 276 171 371 q 294 132 235 182 q 436 82 354 82 q 597 156 536 82 q 665 365 658 231 l 771 365 q 721 165 765 250 q 604 33 676 79 q 436 -14 532 -14 m 381 1101 l 206 1319 l 288 1319 l 482 1129 l 386 1129 l 581 1319 l 661 1319 l 486 1101 l 381 1101 z "},"Ç":{"ha":828,"x_min":63,"x_max":771,"o":"m 436 -14 q 283 22 351 -14 q 165 126 214 58 q 89 289 115 194 q 63 501 63 383 q 89 714 63 619 q 165 875 115 808 q 283 978 214 942 q 435 1014 351 1014 q 603 967 531 1014 q 720 836 676 921 q 771 635 764 751 l 665 635 q 597 844 657 771 q 436 918 536 918 q 294 869 354 918 q 203 726 235 819 q 171 503 171 633 q 203 276 171 371 q 294 132 235 182 q 436 82 354 82 q 597 156 536 82 q 665 365 658 231 l 771 365 q 721 165 765 250 q 604 33 676 79 q 436 -14 532 -14 m 422 -299 q 319 -266 358 -299 q 278 -181 281 -233 l 347 -181 q 373 -221 350 -208 q 426 -233 396 -233 q 476 -220 456 -233 q 496 -185 496 -207 q 469 -140 496 -158 q 376 -118 443 -121 l 406 17 l 476 17 l 457 -67 q 543 -112 518 -79 q 568 -183 568 -144 q 527 -269 568 -239 q 422 -299 486 -299 z "},"Ċ":{"ha":828,"x_min":63,"x_max":771,"o":"m 436 -14 q 283 22 351 -14 q 165 126 214 58 q 89 289 115 194 q 63 501 63 383 q 89 714 63 619 q 165 875 115 808 q 283 978 214 942 q 435 1014 351 1014 q 603 967 531 1014 q 720 836 676 921 q 771 635 764 751 l 665 635 q 597 844 657 771 q 436 918 536 918 q 294 869 354 918 q 203 726 235 819 q 171 503 171 633 q 203 276 171 371 q 294 132 235 182 q 436 82 354 82 q 597 156 536 82 q 665 365 658 231 l 771 365 q 721 165 765 250 q 604 33 676 79 q 436 -14 532 -14 m 372 1167 l 372 1292 l 494 1292 l 494 1167 l 372 1167 z "},"D":{"ha":860,"x_min":108,"x_max":797,"o":"m 176 0 l 176 93 l 374 93 q 545 142 475 93 q 653 283 615 190 q 690 506 690 375 q 653 724 690 635 q 547 860 617 814 q 374 907 476 907 l 172 907 l 172 1000 l 374 1000 q 599 941 504 1000 q 746 771 694 882 q 797 503 797 660 q 745 233 797 346 q 599 60 693 121 q 375 0 504 0 l 176 0 m 108 0 l 108 1000 l 213 1000 l 213 0 l 108 0 z "},"Ð":{"ha":860,"x_min":0,"x_max":797,"o":"m 0 457 l 0 543 l 444 543 l 444 457 l 0 457 m 176 0 l 176 93 l 374 93 q 545 142 475 93 q 653 283 615 190 q 690 506 690 375 q 653 724 690 635 q 547 860 617 814 q 374 907 476 907 l 172 907 l 172 1000 l 374 1000 q 599 941 504 1000 q 746 771 694 882 q 797 503 797 660 q 745 233 797 346 q 599 60 693 121 q 375 0 504 0 l 176 0 m 108 0 l 108 1000 l 213 1000 l 213 0 l 108 0 z "},"Ď":{"ha":860,"x_min":108,"x_max":797,"o":"m 176 0 l 176 93 l 374 93 q 545 142 475 93 q 653 283 615 190 q 690 506 690 375 q 653 724 690 635 q 547 860 617 814 q 374 907 476 907 l 172 907 l 172 1000 l 374 1000 q 599 941 504 1000 q 746 771 694 882 q 797 503 797 660 q 745 233 797 346 q 599 60 693 121 q 375 0 504 0 l 176 0 m 108 0 l 108 1000 l 213 1000 l 213 0 l 108 0 m 376 1101 l 201 1319 l 283 1319 l 478 1129 l 382 1129 l 576 1319 l 657 1319 l 482 1101 l 376 1101 z "},"Đ":{"ha":860,"x_min":0,"x_max":797,"o":"m 0 457 l 0 543 l 444 543 l 444 457 l 0 457 m 176 0 l 176 93 l 374 93 q 545 142 475 93 q 653 283 615 190 q 690 506 690 375 q 653 724 690 635 q 547 860 617 814 q 374 907 476 907 l 172 907 l 172 1000 l 374 1000 q 599 941 504 1000 q 746 771 694 882 q 797 503 797 660 q 745 233 797 346 q 599 60 693 121 q 375 0 504 0 l 176 0 m 108 0 l 108 1000 l 213 1000 l 213 0 l 108 0 z "},"E":{"ha":725,"x_min":108,"x_max":643,"o":"m 108 0 l 108 1000 l 213 1000 l 213 0 l 108 0 m 167 0 l 167 93 l 643 93 l 643 0 l 167 0 m 167 475 l 167 567 l 603 567 l 603 475 l 167 475 m 167 907 l 167 1000 l 632 1000 l 632 907 l 167 907 z "},"É":{"ha":725,"x_min":108,"x_max":643,"o":"m 108 0 l 108 1000 l 213 1000 l 213 0 l 108 0 m 167 0 l 167 93 l 643 93 l 643 0 l 167 0 m 167 475 l 167 567 l 603 567 l 603 475 l 167 475 m 167 907 l 167 1000 l 632 1000 l 632 907 l 167 907 m 367 1101 l 276 1101 l 418 1319 l 563 1319 l 367 1101 z "},"Ě":{"ha":725,"x_min":108,"x_max":643,"o":"m 108 0 l 108 1000 l 213 1000 l 213 0 l 108 0 m 167 0 l 167 93 l 643 93 l 643 0 l 167 0 m 167 475 l 167 567 l 603 567 l 603 475 l 167 475 m 167 907 l 167 1000 l 632 1000 l 632 907 l 167 907 m 324 1101 l 149 1319 l 231 1319 l 425 1129 l 329 1129 l 524 1319 l 604 1319 l 429 1101 l 324 1101 z "},"Ê":{"ha":725,"x_min":108,"x_max":643,"o":"m 108 0 l 108 1000 l 213 1000 l 213 0 l 108 0 m 167 0 l 167 93 l 643 93 l 643 0 l 167 0 m 167 475 l 167 567 l 603 567 l 603 475 l 167 475 m 167 907 l 167 1000 l 632 1000 l 632 907 l 167 907 m 147 1101 l 322 1319 l 428 1319 l 603 1101 l 522 1101 l 328 1292 l 424 1292 l 229 1101 l 147 1101 z "},"Ë":{"ha":725,"x_min":108,"x_max":643,"o":"m 108 0 l 108 1000 l 213 1000 l 213 0 l 108 0 m 167 0 l 167 93 l 643 93 l 643 0 l 167 0 m 167 475 l 167 567 l 603 567 l 603 475 l 167 475 m 167 907 l 167 1000 l 632 1000 l 632 907 l 167 907 m 460 1167 l 460 1292 l 582 1292 l 582 1167 l 460 1167 m 171 1167 l 171 1292 l 293 1292 l 293 1167 l 171 1167 z "},"Ė":{"ha":725,"x_min":108,"x_max":643,"o":"m 108 0 l 108 1000 l 213 1000 l 213 0 l 108 0 m 167 0 l 167 93 l 643 93 l 643 0 l 167 0 m 167 475 l 167 567 l 603 567 l 603 475 l 167 475 m 167 907 l 167 1000 l 632 1000 l 632 907 l 167 907 m 315 1167 l 315 1292 l 438 1292 l 438 1167 l 315 1167 z "},"È":{"ha":725,"x_min":108,"x_max":643,"o":"m 108 0 l 108 1000 l 213 1000 l 213 0 l 108 0 m 167 0 l 167 93 l 643 93 l 643 0 l 167 0 m 167 475 l 167 567 l 603 567 l 603 475 l 167 475 m 167 907 l 167 1000 l 632 1000 l 632 907 l 167 907 m 388 1101 l 192 1319 l 336 1319 l 478 1101 l 388 1101 z "},"Ē":{"ha":725,"x_min":108,"x_max":643,"o":"m 108 0 l 108 1000 l 213 1000 l 213 0 l 108 0 m 167 0 l 167 93 l 643 93 l 643 0 l 167 0 m 167 475 l 167 567 l 603 567 l 603 475 l 167 475 m 167 907 l 167 1000 l 632 1000 l 632 907 l 167 907 m 165 1188 l 165 1260 l 589 1260 l 589 1188 l 165 1188 z "},"Ę":{"ha":725,"x_min":108,"x_max":643,"o":"m 108 0 l 108 1000 l 213 1000 l 213 0 l 108 0 m 167 0 l 167 93 l 643 93 l 643 0 l 167 0 m 167 475 l 167 567 l 603 567 l 603 475 l 167 475 m 167 907 l 167 1000 l 632 1000 l 632 907 l 167 907 m 499 -300 q 417 -270 446 -300 q 388 -193 388 -240 q 438 -75 388 -132 q 564 24 488 -18 l 594 0 q 497 -89 533 -44 q 461 -183 461 -133 q 474 -222 461 -208 q 507 -235 488 -235 q 557 -212 535 -235 l 597 -262 q 554 -290 578 -281 q 499 -300 531 -300 z "},"F":{"ha":676,"x_min":108,"x_max":610,"o":"m 108 0 l 108 1000 l 213 1000 l 213 0 l 108 0 m 167 433 l 167 525 l 581 525 l 581 433 l 167 433 m 167 907 l 167 1000 l 610 1000 l 610 907 l 167 907 z "},"G":{"ha":858,"x_min":63,"x_max":771,"o":"m 465 -14 q 247 45 338 -14 q 110 217 157 104 q 63 490 63 329 q 109 769 63 651 q 241 950 156 886 q 442 1014 326 1014 q 606 972 535 1014 q 722 855 678 931 q 771 676 765 779 l 665 676 q 601 856 658 793 q 446 918 543 918 q 298 868 360 918 q 203 724 236 818 q 171 493 171 629 q 205 265 171 357 q 307 128 239 174 q 474 82 375 82 q 582 99 535 82 q 667 150 629 115 l 771 111 q 635 17 713 49 q 465 -14 558 -14 m 667 121 l 667 475 l 710 432 l 456 432 l 456 524 l 771 524 l 771 111 l 667 121 z "},"Ğ":{"ha":858,"x_min":63,"x_max":771,"o":"m 465 -14 q 247 45 338 -14 q 110 217 157 104 q 63 490 63 329 q 109 769 63 651 q 241 950 156 886 q 442 1014 326 1014 q 606 972 535 1014 q 722 855 678 931 q 771 676 765 779 l 665 676 q 601 856 658 793 q 446 918 543 918 q 298 868 360 918 q 203 724 236 818 q 171 493 171 629 q 205 265 171 357 q 307 128 239 174 q 474 82 375 82 q 582 99 535 82 q 667 150 629 115 l 771 111 q 635 17 713 49 q 465 -14 558 -14 m 667 121 l 667 475 l 710 432 l 456 432 l 456 524 l 771 524 l 771 111 l 667 121 m 443 1096 q 340 1122 388 1096 q 265 1197 293 1147 q 238 1319 238 1247 l 311 1319 q 347 1217 311 1253 q 443 1181 382 1181 q 540 1217 506 1181 q 575 1319 575 1253 l 650 1319 q 622 1197 650 1247 q 547 1122 593 1147 q 443 1096 501 1096 z "},"Ģ":{"ha":858,"x_min":63,"x_max":771,"o":"m 465 -14 q 247 45 338 -14 q 110 217 157 104 q 63 490 63 329 q 109 769 63 651 q 241 950 156 886 q 442 1014 326 1014 q 606 972 535 1014 q 722 855 678 931 q 771 676 765 779 l 665 676 q 601 856 658 793 q 446 918 543 918 q 298 868 360 918 q 203 724 236 818 q 171 493 171 629 q 205 265 171 357 q 307 128 239 174 q 474 82 375 82 q 582 99 535 82 q 667 150 629 115 l 771 111 q 635 17 713 49 q 465 -14 558 -14 m 667 121 l 667 475 l 710 432 l 456 432 l 456 524 l 771 524 l 771 111 l 667 121 m 374 -394 l 374 -340 q 432 -299 413 -326 q 451 -228 451 -271 l 490 -233 l 374 -233 l 374 -99 l 513 -99 l 513 -203 q 478 -324 513 -274 q 374 -394 444 -374 z "},"Ġ":{"ha":858,"x_min":63,"x_max":771,"o":"m 465 -14 q 247 45 338 -14 q 110 217 157 104 q 63 490 63 329 q 109 769 63 651 q 241 950 156 886 q 442 1014 326 1014 q 606 972 535 1014 q 722 855 678 931 q 771 676 765 779 l 665 676 q 601 856 658 793 q 446 918 543 918 q 298 868 360 918 q 203 724 236 818 q 171 493 171 629 q 205 265 171 357 q 307 128 239 174 q 474 82 375 82 q 582 99 535 82 q 667 150 629 115 l 771 111 q 635 17 713 49 q 465 -14 558 -14 m 667 121 l 667 475 l 710 432 l 456 432 l 456 524 l 771 524 l 771 111 l 667 121 m 382 1167 l 382 1292 l 504 1292 l 504 1167 l 382 1167 z "},"H":{"ha":851,"x_min":108,"x_max":744,"o":"m 108 0 l 108 1000 l 213 1000 l 213 0 l 108 0 m 639 0 l 639 1000 l 744 1000 l 744 0 l 639 0 m 167 567 l 682 567 l 682 475 l 167 475 l 167 567 z "},"Ħ":{"ha":851,"x_min":0,"x_max":851,"o":"m 0 756 l 0 842 l 851 842 l 851 756 l 0 756 m 108 0 l 108 1000 l 213 1000 l 213 0 l 108 0 m 639 0 l 639 1000 l 744 1000 l 744 0 l 639 0 m 167 567 l 682 567 l 682 475 l 167 475 l 167 567 z "},"I":{"ha":321,"x_min":108,"x_max":213,"o":"m 108 0 l 108 1000 l 213 1000 l 213 0 l 108 0 z "},"Ĳ":{"ha":846,"x_min":108,"x_max":747,"o":"m 108 0 l 108 1000 l 213 1000 l 213 0 l 108 0 m 476 -14 q 397 -8 433 -14 q 342 7 360 -1 l 342 104 q 403 88 367 94 q 476 81 440 81 q 599 114 556 81 q 642 221 642 147 l 642 1000 l 746 1000 l 746 215 q 675 42 746 97 q 476 -14 604 -14 z "},"Í":{"ha":321,"x_min":60,"x_max":346,"o":"m 108 0 l 108 1000 l 213 1000 l 213 0 l 108 0 m 150 1101 l 60 1101 l 201 1319 l 346 1319 l 150 1101 z "},"Î":{"ha":321,"x_min":-69,"x_max":388,"o":"m 108 0 l 108 1000 l 213 1000 l 213 0 l 108 0 m -69 1101 l 106 1319 l 211 1319 l 386 1101 l 306 1101 l 111 1292 l 207 1292 l 13 1101 l -69 1101 z "},"Ï":{"ha":321,"x_min":-46,"x_max":365,"o":"m 108 0 l 108 1000 l 213 1000 l 213 0 l 108 0 m 243 1167 l 243 1292 l 365 1292 l 365 1167 l 243 1167 m -46 1167 l -46 1292 l 76 1292 l 76 1167 l -46 1167 z "},"İ":{"ha":321,"x_min":100,"x_max":222,"o":"m 108 0 l 108 1000 l 213 1000 l 213 0 l 108 0 m 100 1167 l 100 1292 l 222 1292 l 222 1167 l 100 1167 z "},"Ì":{"ha":321,"x_min":-25,"x_max":261,"o":"m 108 0 l 108 1000 l 213 1000 l 213 0 l 108 0 m 171 1101 l -25 1319 l 119 1319 l 261 1101 l 171 1101 z "},"Ī":{"ha":321,"x_min":-51,"x_max":372,"o":"m 108 0 l 108 1000 l 213 1000 l 213 0 l 108 0 m -51 1188 l -51 1260 l 372 1260 l 372 1188 l -51 1188 z "},"Į":{"ha":321,"x_min":-7,"x_max":213,"o":"m 108 0 l 108 1000 l 213 1000 l 213 0 l 108 0 m 104 -300 q 22 -270 51 -300 q -7 -193 -7 -240 q 43 -75 -7 -132 q 169 24 93 -18 l 200 0 q 103 -89 139 -44 q 67 -183 67 -133 q 80 -222 67 -208 q 113 -235 93 -235 q 163 -212 140 -235 l 203 -262 q 160 -290 183 -281 q 104 -300 136 -300 z "},"J":{"ha":525,"x_min":21,"x_max":425,"o":"m 156 -14 q 76 -8 113 -14 q 21 7 39 -1 l 21 104 q 83 88 46 94 q 156 81 119 81 q 278 114 235 81 q 321 221 321 147 l 321 1000 l 425 1000 l 425 215 q 354 42 425 97 q 156 -14 283 -14 z "},"K":{"ha":799,"x_min":108,"x_max":771,"o":"m 108 0 l 108 1000 l 213 1000 l 213 0 l 108 0 m 200 519 l 611 1000 l 743 1000 l 326 519 l 200 519 m 632 0 l 197 519 l 326 519 l 771 0 l 632 0 z "},"Ķ":{"ha":799,"x_min":108,"x_max":771,"o":"m 108 0 l 108 1000 l 213 1000 l 213 0 l 108 0 m 200 519 l 611 1000 l 743 1000 l 326 519 l 200 519 m 632 0 l 197 519 l 326 519 l 771 0 l 632 0 m 350 -394 l 350 -340 q 408 -299 389 -326 q 428 -228 428 -271 l 467 -233 l 350 -233 l 350 -99 l 489 -99 l 489 -203 q 455 -324 489 -274 q 350 -394 421 -374 z "},"L":{"ha":663,"x_min":108,"x_max":601,"o":"m 108 0 l 108 1000 l 213 1000 l 213 0 l 108 0 m 167 0 l 167 93 l 601 93 l 601 0 l 167 0 z "},"Ĺ":{"ha":663,"x_min":58,"x_max":601,"o":"m 108 0 l 108 1000 l 213 1000 l 213 0 l 108 0 m 167 0 l 167 93 l 601 93 l 601 0 l 167 0 m 149 1101 l 58 1101 l 200 1319 l 344 1319 l 149 1101 z "},"Ľ":{"ha":663,"x_min":108,"x_max":601,"o":"m 108 0 l 108 1000 l 213 1000 l 213 0 l 108 0 m 167 0 l 167 93 l 601 93 l 601 0 l 167 0 m 517 699 l 454 699 l 454 1000 l 553 1000 l 517 699 z "},"Ļ":{"ha":663,"x_min":108,"x_max":601,"o":"m 108 0 l 108 1000 l 213 1000 l 213 0 l 108 0 m 167 0 l 167 93 l 601 93 l 601 0 l 167 0 m 301 -394 l 301 -340 q 360 -299 340 -326 q 379 -228 379 -271 l 418 -233 l 301 -233 l 301 -99 l 440 -99 l 440 -203 q 406 -324 440 -274 q 301 -394 372 -374 z "},"Ł":{"ha":663,"x_min":0,"x_max":601,"o":"m 161 479 l 0 406 l 0 492 l 160 564 l 161 479 m 160 569 l 390 676 l 390 590 l 161 485 l 160 569 m 108 0 l 108 1000 l 213 1000 l 213 0 l 108 0 m 167 0 l 167 93 l 601 93 l 601 0 l 167 0 z "},"M":{"ha":1089,"x_min":108,"x_max":981,"o":"m 108 0 l 108 1000 l 267 1000 l 567 49 l 522 49 l 821 1000 l 981 1000 l 981 0 l 876 0 l 876 900 l 886 900 l 601 0 l 478 0 l 194 896 l 203 897 l 203 0 l 108 0 z "},"N":{"ha":856,"x_min":108,"x_max":747,"o":"m 108 0 l 108 1000 l 226 1000 l 664 158 l 649 156 l 649 1000 l 747 1000 l 747 0 l 629 0 l 193 842 l 207 844 l 207 0 l 108 0 z "},"Ń":{"ha":856,"x_min":108,"x_max":747,"o":"m 108 0 l 108 1000 l 226 1000 l 664 158 l 649 156 l 649 1000 l 747 1000 l 747 0 l 629 0 l 193 842 l 207 844 l 207 0 l 108 0 m 418 1101 l 328 1101 l 469 1319 l 614 1319 l 418 1101 z "},"Ň":{"ha":856,"x_min":108,"x_max":747,"o":"m 108 0 l 108 1000 l 226 1000 l 664 158 l 649 156 l 649 1000 l 747 1000 l 747 0 l 629 0 l 193 842 l 207 844 l 207 0 l 108 0 m 375 1101 l 200 1319 l 282 1319 l 476 1129 l 381 1129 l 575 1319 l 656 1319 l 481 1101 l 375 1101 z "},"Ņ":{"ha":856,"x_min":108,"x_max":747,"o":"m 108 0 l 108 1000 l 226 1000 l 664 158 l 649 156 l 649 1000 l 747 1000 l 747 0 l 629 0 l 193 842 l 207 844 l 207 0 l 108 0 m 358 -394 l 358 -340 q 417 -299 397 -326 q 436 -228 436 -271 l 475 -233 l 358 -233 l 358 -99 l 497 -99 l 497 -203 q 463 -324 497 -274 q 358 -394 429 -374 z "},"Ñ":{"ha":856,"x_min":108,"x_max":747,"o":"m 108 0 l 108 1000 l 226 1000 l 664 158 l 649 156 l 649 1000 l 747 1000 l 747 0 l 629 0 l 193 842 l 207 844 l 207 0 l 108 0 m 525 1121 q 460 1135 488 1121 q 412 1169 433 1150 q 370 1202 390 1188 q 325 1217 350 1217 q 282 1197 299 1217 q 265 1135 265 1178 l 196 1135 q 213 1223 196 1188 q 263 1276 231 1258 q 335 1294 294 1294 q 400 1280 374 1294 q 447 1247 426 1265 q 486 1213 467 1228 q 531 1199 506 1199 q 575 1218 558 1199 q 592 1281 592 1238 l 661 1281 q 644 1194 661 1229 q 595 1140 626 1158 q 525 1121 564 1121 z "},"Ŋ":{"ha":856,"x_min":108,"x_max":747,"o":"m 108 0 l 108 1000 l 226 1000 l 683 158 l 649 156 l 649 1000 l 747 1000 l 747 0 l 650 0 l 193 842 l 207 844 l 207 0 l 108 0 m 561 -299 q 510 -295 529 -299 q 474 -287 490 -292 l 474 -194 q 508 -201 489 -199 q 549 -204 526 -204 q 624 -183 603 -204 q 646 -114 646 -161 l 646 32 l 747 32 l 747 -122 q 702 -250 747 -201 q 561 -299 657 -299 z "},"O":{"ha":886,"x_min":63,"x_max":824,"o":"m 443 -14 q 288 23 357 -14 q 167 128 218 60 q 90 292 117 196 q 63 504 63 388 q 110 773 63 658 q 242 951 157 888 q 442 1014 328 1014 q 642 951 557 1014 q 776 773 728 888 q 824 503 824 658 q 796 291 824 386 q 718 128 768 196 q 598 23 668 60 q 443 -14 528 -14 m 442 82 q 587 134 525 82 q 682 281 649 186 q 715 506 715 376 q 682 726 715 633 q 588 868 649 818 q 442 918 526 918 q 296 869 357 918 q 203 727 235 819 q 171 506 171 635 q 203 280 171 375 q 297 133 236 185 q 442 82 358 82 z "},"Ó":{"ha":886,"x_min":63,"x_max":824,"o":"m 443 -14 q 288 23 357 -14 q 167 128 218 60 q 90 292 117 196 q 63 504 63 388 q 110 773 63 658 q 242 951 157 888 q 442 1014 328 1014 q 642 951 557 1014 q 776 773 728 888 q 824 503 824 658 q 796 291 824 386 q 718 128 768 196 q 598 23 668 60 q 443 -14 528 -14 m 442 82 q 587 134 525 82 q 682 281 649 186 q 715 506 715 376 q 682 726 715 633 q 588 868 649 818 q 442 918 526 918 q 296 869 357 918 q 203 727 235 819 q 171 506 171 635 q 203 280 171 375 q 297 133 236 185 q 442 82 358 82 m 432 1101 l 342 1101 l 483 1319 l 628 1319 l 432 1101 z "},"Ô":{"ha":886,"x_min":63,"x_max":824,"o":"m 443 -14 q 288 23 357 -14 q 167 128 218 60 q 90 292 117 196 q 63 504 63 388 q 110 773 63 658 q 242 951 157 888 q 442 1014 328 1014 q 642 951 557 1014 q 776 773 728 888 q 824 503 824 658 q 796 291 824 386 q 718 128 768 196 q 598 23 668 60 q 443 -14 528 -14 m 442 82 q 587 134 525 82 q 682 281 649 186 q 715 506 715 376 q 682 726 715 633 q 588 868 649 818 q 442 918 526 918 q 296 869 357 918 q 203 727 235 819 q 171 506 171 635 q 203 280 171 375 q 297 133 236 185 q 442 82 358 82 m 213 1101 l 388 1319 l 493 1319 l 668 1101 l 588 1101 l 393 1292 l 489 1292 l 294 1101 l 213 1101 z "},"Ö":{"ha":886,"x_min":63,"x_max":824,"o":"m 443 -14 q 288 23 357 -14 q 167 128 218 60 q 90 292 117 196 q 63 504 63 388 q 110 773 63 658 q 242 951 157 888 q 442 1014 328 1014 q 642 951 557 1014 q 776 773 728 888 q 824 503 824 658 q 796 291 824 386 q 718 128 768 196 q 598 23 668 60 q 443 -14 528 -14 m 442 82 q 587 134 525 82 q 682 281 649 186 q 715 506 715 376 q 682 726 715 633 q 588 868 649 818 q 442 918 526 918 q 296 869 357 918 q 203 727 235 819 q 171 506 171 635 q 203 280 171 375 q 297 133 236 185 q 442 82 358 82 m 525 1167 l 525 1292 l 647 1292 l 647 1167 l 525 1167 m 236 1167 l 236 1292 l 358 1292 l 358 1167 l 236 1167 z "},"Ò":{"ha":886,"x_min":63,"x_max":824,"o":"m 443 -14 q 288 23 357 -14 q 167 128 218 60 q 90 292 117 196 q 63 504 63 388 q 110 773 63 658 q 242 951 157 888 q 442 1014 328 1014 q 642 951 557 1014 q 776 773 728 888 q 824 503 824 658 q 796 291 824 386 q 718 128 768 196 q 598 23 668 60 q 443 -14 528 -14 m 442 82 q 587 134 525 82 q 682 281 649 186 q 715 506 715 376 q 682 726 715 633 q 588 868 649 818 q 442 918 526 918 q 296 869 357 918 q 203 727 235 819 q 171 506 171 635 q 203 280 171 375 q 297 133 236 185 q 442 82 358 82 m 454 1101 l 258 1319 l 403 1319 l 544 1101 l 454 1101 z "},"Ő":{"ha":886,"x_min":63,"x_max":824,"o":"m 443 -14 q 288 23 357 -14 q 167 128 218 60 q 90 292 117 196 q 63 504 63 388 q 110 773 63 658 q 242 951 157 888 q 442 1014 328 1014 q 642 951 557 1014 q 776 773 728 888 q 824 503 824 658 q 796 291 824 386 q 718 128 768 196 q 598 23 668 60 q 443 -14 528 -14 m 442 82 q 587 134 525 82 q 682 281 649 186 q 715 506 715 376 q 682 726 715 633 q 588 868 649 818 q 442 918 526 918 q 296 869 357 918 q 203 727 235 819 q 171 506 171 635 q 203 280 171 375 q 297 133 236 185 q 442 82 358 82 m 338 1101 l 258 1101 l 339 1319 l 461 1319 l 338 1101 m 581 1101 l 501 1101 l 582 1319 l 704 1319 l 581 1101 z "},"Ō":{"ha":886,"x_min":63,"x_max":824,"o":"m 443 -14 q 288 23 357 -14 q 167 128 218 60 q 90 292 117 196 q 63 504 63 388 q 110 773 63 658 q 242 951 157 888 q 442 1014 328 1014 q 642 951 557 1014 q 776 773 728 888 q 824 503 824 658 q 796 291 824 386 q 718 128 768 196 q 598 23 668 60 q 443 -14 528 -14 m 442 82 q 587 134 525 82 q 682 281 649 186 q 715 506 715 376 q 682 726 715 633 q 588 868 649 818 q 442 918 526 918 q 296 869 357 918 q 203 727 235 819 q 171 506 171 635 q 203 280 171 375 q 297 133 236 185 q 442 82 358 82 m 231 1188 l 231 1260 l 654 1260 l 654 1188 l 231 1188 z "},"Ø":{"ha":886,"x_min":60,"x_max":826,"o":"m 124 -14 l 60 31 l 763 1014 l 826 969 l 124 -14 m 443 -14 q 288 23 357 -14 q 167 128 218 60 q 90 292 117 196 q 63 504 63 388 q 110 773 63 658 q 242 951 157 888 q 442 1014 328 1014 q 642 951 557 1014 q 776 773 728 888 q 824 503 824 658 q 796 291 824 386 q 718 128 768 196 q 598 23 668 60 q 443 -14 528 -14 m 442 82 q 587 134 525 82 q 682 281 649 186 q 715 506 715 376 q 682 726 715 633 q 588 868 649 818 q 442 918 526 918 q 296 869 357 918 q 203 727 235 819 q 171 506 171 635 q 203 280 171 375 q 297 133 236 185 q 442 82 358 82 z "},"Õ":{"ha":886,"x_min":63,"x_max":824,"o":"m 443 -14 q 288 23 357 -14 q 167 128 218 60 q 90 292 117 196 q 63 504 63 388 q 110 773 63 658 q 242 951 157 888 q 442 1014 328 1014 q 642 951 557 1014 q 776 773 728 888 q 824 503 824 658 q 796 291 824 386 q 718 128 768 196 q 598 23 668 60 q 443 -14 528 -14 m 442 82 q 587 134 525 82 q 682 281 649 186 q 715 506 715 376 q 682 726 715 633 q 588 868 649 818 q 442 918 526 918 q 296 869 357 918 q 203 727 235 819 q 171 506 171 635 q 203 280 171 375 q 297 133 236 185 q 442 82 358 82 m 539 1121 q 474 1135 501 1121 q 426 1169 447 1150 q 384 1202 404 1188 q 339 1217 364 1217 q 296 1197 313 1217 q 279 1135 279 1178 l 210 1135 q 227 1223 210 1188 q 276 1276 244 1258 q 349 1294 308 1294 q 414 1280 388 1294 q 460 1247 440 1265 q 500 1213 481 1228 q 544 1199 519 1199 q 589 1218 572 1199 q 606 1281 606 1238 l 675 1281 q 658 1194 675 1229 q 609 1140 640 1158 q 539 1121 578 1121 z "},"Œ":{"ha":1190,"x_min":63,"x_max":1107,"o":"m 475 -14 q 252 49 344 -14 q 111 228 160 113 q 63 501 63 344 q 111 772 63 657 q 252 951 160 888 q 475 1014 344 1014 q 563 1008 524 1014 q 639 988 603 1001 l 639 875 q 569 908 611 897 q 475 918 526 918 q 306 868 374 918 q 204 725 238 818 q 171 501 171 632 q 204 276 171 369 q 306 132 238 182 q 475 82 374 82 q 569 92 526 82 q 639 125 611 103 l 639 13 q 563 -8 603 -1 q 475 -14 524 -14 m 593 0 l 593 1000 l 1096 1000 l 1096 907 l 699 907 l 699 567 l 1067 567 l 1067 475 l 699 475 l 699 93 l 1107 93 l 1107 0 l 593 0 z "},"P":{"ha":751,"x_min":108,"x_max":703,"o":"m 108 0 l 108 1000 l 397 1000 q 563 964 494 1000 q 667 863 631 928 q 703 708 703 797 q 667 553 703 619 q 563 449 631 486 q 397 413 494 413 l 182 413 l 182 506 l 393 506 q 545 559 493 506 q 597 708 597 613 q 545 855 597 803 q 393 907 493 907 l 213 907 l 213 0 l 108 0 z "},"Þ":{"ha":751,"x_min":108,"x_max":703,"o":"m 182 229 l 182 322 l 386 322 q 544 372 490 322 q 597 514 597 421 q 544 656 597 607 q 386 706 490 706 l 182 706 l 182 799 l 390 799 q 556 764 485 799 q 665 665 626 729 q 703 514 703 601 q 665 363 703 428 q 556 264 626 299 q 390 229 485 229 l 182 229 m 108 0 l 108 1000 l 213 1000 l 213 0 l 108 0 z "},"Q":{"ha":886,"x_min":63,"x_max":856,"o":"m 454 -14 q 244 50 332 -14 q 109 231 156 114 q 63 504 63 347 q 110 773 63 658 q 242 951 157 888 q 442 1014 328 1014 q 642 951 557 1014 q 776 773 728 888 q 824 503 824 658 q 794 291 824 386 q 708 131 765 196 q 563 40 650 67 l 454 -14 m 442 79 q 588 132 526 79 q 682 281 649 185 q 715 506 715 376 q 682 726 715 633 q 588 868 649 818 q 442 918 526 918 q 296 869 357 918 q 203 727 235 819 q 171 506 171 635 q 203 279 171 375 q 297 131 236 183 q 442 79 358 79 m 454 -14 l 443 60 l 856 93 l 856 0 q 739 -2 789 0 q 647 -7 689 -4 q 559 -12 604 -10 q 454 -14 514 -14 z "},"R":{"ha":751,"x_min":108,"x_max":728,"o":"m 108 0 l 108 1000 l 383 1000 q 544 965 478 1000 q 647 867 611 929 q 682 722 682 804 q 647 576 682 640 q 544 476 611 513 q 383 440 478 440 l 182 440 l 182 533 l 381 533 q 525 585 474 533 q 576 722 576 638 q 526 856 576 806 q 381 907 475 907 l 213 907 l 213 0 l 108 0 m 585 0 l 158 508 l 289 508 l 728 0 l 585 0 z "},"Ŕ":{"ha":751,"x_min":108,"x_max":728,"o":"m 108 0 l 108 1000 l 383 1000 q 544 965 478 1000 q 647 867 611 929 q 682 722 682 804 q 647 576 682 640 q 544 476 611 513 q 383 440 478 440 l 182 440 l 182 533 l 381 533 q 525 585 474 533 q 576 722 576 638 q 526 856 576 806 q 381 907 475 907 l 213 907 l 213 0 l 108 0 m 585 0 l 158 508 l 289 508 l 728 0 l 585 0 m 365 1101 l 275 1101 l 417 1319 l 561 1319 l 365 1101 z "},"Ř":{"ha":751,"x_min":108,"x_max":728,"o":"m 108 0 l 108 1000 l 383 1000 q 544 965 478 1000 q 647 867 611 929 q 682 722 682 804 q 647 576 682 640 q 544 476 611 513 q 383 440 478 440 l 182 440 l 182 533 l 381 533 q 525 585 474 533 q 576 722 576 638 q 526 856 576 806 q 381 907 475 907 l 213 907 l 213 0 l 108 0 m 585 0 l 158 508 l 289 508 l 728 0 l 585 0 m 322 1101 l 147 1319 l 229 1319 l 424 1129 l 328 1129 l 522 1319 l 603 1319 l 428 1101 l 322 1101 z "},"Ŗ":{"ha":751,"x_min":108,"x_max":728,"o":"m 108 0 l 108 1000 l 383 1000 q 544 965 478 1000 q 647 867 611 929 q 682 722 682 804 q 647 576 682 640 q 544 476 611 513 q 383 440 478 440 l 182 440 l 182 533 l 381 533 q 525 585 474 533 q 576 722 576 638 q 526 856 576 806 q 381 907 475 907 l 213 907 l 213 0 l 108 0 m 585 0 l 158 508 l 289 508 l 728 0 l 585 0 m 306 -394 l 306 -340 q 364 -299 344 -326 q 383 -228 383 -271 l 422 -233 l 306 -233 l 306 -99 l 444 -99 l 444 -203 q 410 -324 444 -274 q 306 -394 376 -374 z "},"S":{"ha":704,"x_min":51,"x_max":656,"o":"m 378 -12 q 145 75 231 -12 q 51 319 60 163 l 153 319 q 219 142 160 204 q 381 81 278 81 q 508 120 465 81 q 551 238 551 160 q 522 344 551 301 q 426 421 492 388 l 276 506 q 135 620 182 554 q 88 771 88 686 q 121 899 88 844 q 216 985 154 954 q 358 1015 278 1015 q 563 937 489 1015 q 644 714 638 858 l 543 714 q 490 872 535 821 q 356 922 444 922 q 233 885 276 922 q 190 778 190 847 q 222 678 190 719 q 319 600 253 636 l 474 514 q 610 397 564 468 q 656 236 656 326 q 582 53 656 119 q 378 -12 508 -12 z "},"Ś":{"ha":704,"x_min":51,"x_max":656,"o":"m 378 -12 q 145 75 231 -12 q 51 319 60 163 l 153 319 q 219 142 160 204 q 381 81 278 81 q 508 120 465 81 q 551 238 551 160 q 522 344 551 301 q 426 421 492 388 l 276 506 q 135 620 182 554 q 88 771 88 686 q 121 899 88 844 q 216 985 154 954 q 358 1015 278 1015 q 563 937 489 1015 q 644 714 638 858 l 543 714 q 490 872 535 821 q 356 922 444 922 q 233 885 276 922 q 190 778 190 847 q 222 678 190 719 q 319 600 253 636 l 474 514 q 610 397 564 468 q 656 236 656 326 q 582 53 656 119 q 378 -12 508 -12 m 354 1101 l 264 1101 l 406 1319 l 550 1319 l 354 1101 z "},"Š":{"ha":704,"x_min":51,"x_max":656,"o":"m 378 -12 q 145 75 231 -12 q 51 319 60 163 l 153 319 q 219 142 160 204 q 381 81 278 81 q 508 120 465 81 q 551 238 551 160 q 522 344 551 301 q 426 421 492 388 l 276 506 q 135 620 182 554 q 88 771 88 686 q 121 899 88 844 q 216 985 154 954 q 358 1015 278 1015 q 563 937 489 1015 q 644 714 638 858 l 543 714 q 490 872 535 821 q 356 922 444 922 q 233 885 276 922 q 190 778 190 847 q 222 678 190 719 q 319 600 253 636 l 474 514 q 610 397 564 468 q 656 236 656 326 q 582 53 656 119 q 378 -12 508 -12 m 311 1101 l 136 1319 l 218 1319 l 413 1129 l 317 1129 l 511 1319 l 592 1319 l 417 1101 l 311 1101 z "},"Ş":{"ha":704,"x_min":51,"x_max":656,"o":"m 378 -12 q 145 75 231 -12 q 51 319 60 163 l 153 319 q 219 142 160 204 q 381 81 278 81 q 508 120 465 81 q 551 238 551 160 q 522 344 551 301 q 426 421 492 388 l 276 506 q 135 620 182 554 q 88 771 88 686 q 121 899 88 844 q 216 985 154 954 q 358 1015 278 1015 q 563 937 489 1015 q 644 714 638 858 l 543 714 q 490 872 535 821 q 356 922 444 922 q 233 885 276 922 q 190 778 190 847 q 222 678 190 719 q 319 600 253 636 l 474 514 q 610 397 564 468 q 656 236 656 326 q 582 53 656 119 q 378 -12 508 -12 m 353 -299 q 250 -266 289 -299 q 208 -181 211 -233 l 278 -181 q 303 -221 281 -208 q 357 -233 326 -233 q 406 -220 386 -233 q 426 -185 426 -207 q 400 -140 426 -158 q 307 -118 374 -121 l 336 17 l 407 17 l 388 -67 q 474 -112 449 -79 q 499 -183 499 -144 q 458 -269 499 -239 q 353 -299 417 -299 z "},"Ș":{"ha":704,"x_min":51,"x_max":656,"o":"m 378 -12 q 145 75 231 -12 q 51 319 60 163 l 153 319 q 219 142 160 204 q 381 81 278 81 q 508 120 465 81 q 551 238 551 160 q 522 344 551 301 q 426 421 492 388 l 276 506 q 135 620 182 554 q 88 771 88 686 q 121 899 88 844 q 216 985 154 954 q 358 1015 278 1015 q 563 937 489 1015 q 644 714 638 858 l 543 714 q 490 872 535 821 q 356 922 444 922 q 233 885 276 922 q 190 778 190 847 q 222 678 190 719 q 319 600 253 636 l 474 514 q 610 397 564 468 q 656 236 656 326 q 582 53 656 119 q 378 -12 508 -12 m 294 -394 l 294 -340 q 353 -299 333 -326 q 372 -228 372 -271 l 411 -233 l 294 -233 l 294 -99 l 433 -99 l 433 -203 q 399 -324 433 -274 q 294 -394 365 -374 z "},"ẞ":{"ha":821,"x_min":108,"x_max":771,"o":"m 474 -12 q 394 -8 433 -12 q 325 7 354 -3 l 325 104 q 392 87 353 93 q 472 81 431 81 q 617 126 571 81 q 664 256 664 171 q 612 392 664 331 q 442 506 560 454 l 406 525 l 663 896 l 668 817 q 570 897 626 871 q 446 922 514 922 q 273 858 333 922 q 213 661 213 793 l 213 0 l 108 0 l 108 661 q 196 924 108 833 q 450 1015 283 1015 q 624 981 547 1015 q 767 872 700 946 l 522 515 l 493 596 q 701 444 632 535 q 771 249 771 354 q 738 110 771 168 q 638 19 704 51 q 474 -12 571 -12 z "},"T":{"ha":732,"x_min":39,"x_max":693,"o":"m 313 0 l 313 907 l 39 907 l 39 1000 l 693 1000 l 693 907 l 418 907 l 418 0 l 313 0 z "},"Ť":{"ha":732,"x_min":39,"x_max":693,"o":"m 313 0 l 313 907 l 39 907 l 39 1000 l 693 1000 l 693 907 l 418 907 l 418 0 l 313 0 m 313 1101 l 138 1319 l 219 1319 l 414 1129 l 318 1129 l 513 1319 l 593 1319 l 418 1101 l 313 1101 z "},"Ț":{"ha":732,"x_min":39,"x_max":693,"o":"m 313 0 l 313 907 l 39 907 l 39 1000 l 693 1000 l 693 907 l 418 907 l 418 0 l 313 0 m 296 -394 l 296 -340 q 354 -299 335 -326 q 374 -228 374 -271 l 413 -233 l 296 -233 l 296 -99 l 435 -99 l 435 -203 q 401 -324 435 -274 q 296 -394 367 -374 z "},"U":{"ha":818,"x_min":100,"x_max":719,"o":"m 408 -14 q 181 78 261 -14 q 100 332 100 169 l 100 1000 l 204 1000 l 204 324 q 258 143 204 204 q 408 82 311 82 q 560 142 507 82 q 614 324 614 203 l 614 1000 l 719 1000 l 719 331 q 638 78 719 169 q 408 -14 557 -14 z "},"Ú":{"ha":818,"x_min":100,"x_max":719,"o":"m 408 -14 q 181 78 261 -14 q 100 332 100 169 l 100 1000 l 204 1000 l 204 324 q 258 143 204 204 q 408 82 311 82 q 560 142 507 82 q 614 324 614 203 l 614 1000 l 719 1000 l 719 331 q 638 78 719 169 q 408 -14 557 -14 m 399 1101 l 308 1101 l 450 1319 l 594 1319 l 399 1101 z "},"Ŭ":{"ha":818,"x_min":100,"x_max":719,"o":"m 408 -14 q 181 78 261 -14 q 100 332 100 169 l 100 1000 l 204 1000 l 204 324 q 258 143 204 204 q 408 82 311 82 q 560 142 507 82 q 614 324 614 203 l 614 1000 l 719 1000 l 719 331 q 638 78 719 169 q 408 -14 557 -14 m 408 1096 q 306 1122 353 1096 q 231 1197 258 1147 q 203 1319 203 1247 l 276 1319 q 312 1217 276 1253 q 408 1181 347 1181 q 506 1217 471 1181 q 540 1319 540 1253 l 615 1319 q 587 1197 615 1247 q 513 1122 558 1147 q 408 1096 467 1096 z "},"Û":{"ha":818,"x_min":100,"x_max":719,"o":"m 408 -14 q 181 78 261 -14 q 100 332 100 169 l 100 1000 l 204 1000 l 204 324 q 258 143 204 204 q 408 82 311 82 q 560 142 507 82 q 614 324 614 203 l 614 1000 l 719 1000 l 719 331 q 638 78 719 169 q 408 -14 557 -14 m 179 1101 l 354 1319 l 460 1319 l 635 1101 l 554 1101 l 360 1292 l 456 1292 l 261 1101 l 179 1101 z "},"Ü":{"ha":818,"x_min":100,"x_max":719,"o":"m 408 -14 q 181 78 261 -14 q 100 332 100 169 l 100 1000 l 204 1000 l 204 324 q 258 143 204 204 q 408 82 311 82 q 560 142 507 82 q 614 324 614 203 l 614 1000 l 719 1000 l 719 331 q 638 78 719 169 q 408 -14 557 -14 m 492 1167 l 492 1292 l 614 1292 l 614 1167 l 492 1167 m 203 1167 l 203 1292 l 325 1292 l 325 1167 l 203 1167 z "},"Ù":{"ha":818,"x_min":100,"x_max":719,"o":"m 408 -14 q 181 78 261 -14 q 100 332 100 169 l 100 1000 l 204 1000 l 204 324 q 258 143 204 204 q 408 82 311 82 q 560 142 507 82 q 614 324 614 203 l 614 1000 l 719 1000 l 719 331 q 638 78 719 169 q 408 -14 557 -14 m 421 1101 l 225 1319 l 369 1319 l 511 1101 l 421 1101 z "},"Ű":{"ha":818,"x_min":100,"x_max":719,"o":"m 408 -14 q 181 78 261 -14 q 100 332 100 169 l 100 1000 l 204 1000 l 204 324 q 258 143 204 204 q 408 82 311 82 q 560 142 507 82 q 614 324 614 203 l 614 1000 l 719 1000 l 719 331 q 638 78 719 169 q 408 -14 557 -14 m 304 1101 l 225 1101 l 306 1319 l 428 1319 l 304 1101 m 547 1101 l 468 1101 l 549 1319 l 671 1319 l 547 1101 z "},"Ū":{"ha":818,"x_min":100,"x_max":719,"o":"m 408 -14 q 181 78 261 -14 q 100 332 100 169 l 100 1000 l 204 1000 l 204 324 q 258 143 204 204 q 408 82 311 82 q 560 142 507 82 q 614 324 614 203 l 614 1000 l 719 1000 l 719 331 q 638 78 719 169 q 408 -14 557 -14 m 197 1188 l 197 1260 l 621 1260 l 621 1188 l 197 1188 z "},"Ų":{"ha":818,"x_min":100,"x_max":719,"o":"m 408 -14 q 181 78 261 -14 q 100 332 100 169 l 100 1000 l 204 1000 l 204 324 q 258 143 204 204 q 408 82 311 82 q 560 142 507 82 q 614 324 614 203 l 614 1000 l 719 1000 l 719 331 q 638 78 719 169 q 408 -14 557 -14 m 479 -272 q 397 -242 426 -272 q 368 -165 368 -212 q 418 -47 368 -104 q 544 51 468 10 l 575 28 q 478 -61 514 -17 q 442 -156 442 -106 q 455 -194 442 -181 q 488 -207 468 -207 q 538 -185 515 -207 l 578 -235 q 535 -262 558 -253 q 479 -272 511 -272 z "},"Ů":{"ha":818,"x_min":100,"x_max":719,"o":"m 408 -14 q 181 78 261 -14 q 100 332 100 169 l 100 1000 l 204 1000 l 204 324 q 258 143 204 204 q 408 82 311 82 q 560 142 507 82 q 614 324 614 203 l 614 1000 l 719 1000 l 719 331 q 638 78 719 169 q 408 -14 557 -14 m 410 1071 q 303 1115 346 1071 q 260 1221 260 1158 q 303 1326 260 1282 q 410 1369 346 1369 q 516 1326 474 1369 q 558 1221 558 1282 q 516 1115 558 1158 q 410 1071 474 1071 m 410 1133 q 470 1159 447 1133 q 493 1221 493 1185 q 469 1282 493 1257 q 410 1307 446 1307 q 349 1282 372 1307 q 325 1221 325 1257 q 349 1159 325 1185 q 410 1133 372 1133 z "},"V":{"ha":810,"x_min":42,"x_max":768,"o":"m 339 0 l 42 1000 l 150 1000 l 422 61 l 393 61 l 665 1000 l 768 1000 l 471 0 l 339 0 z "},"W":{"ha":1176,"x_min":58,"x_max":1118,"o":"m 274 0 l 58 1000 l 164 1000 l 353 94 l 338 94 l 525 1000 l 657 1000 l 844 94 l 829 94 l 1018 1000 l 1118 1000 l 901 0 l 771 0 l 582 876 l 594 876 l 406 0 l 274 0 z "},"Ẃ":{"ha":1176,"x_min":58,"x_max":1118,"o":"m 274 0 l 58 1000 l 164 1000 l 353 94 l 338 94 l 525 1000 l 657 1000 l 844 94 l 829 94 l 1018 1000 l 1118 1000 l 901 0 l 771 0 l 582 876 l 594 876 l 406 0 l 274 0 m 578 1101 l 488 1101 l 629 1319 l 774 1319 l 578 1101 z "},"Ŵ":{"ha":1176,"x_min":58,"x_max":1118,"o":"m 274 0 l 58 1000 l 164 1000 l 353 94 l 338 94 l 525 1000 l 657 1000 l 844 94 l 829 94 l 1018 1000 l 1118 1000 l 901 0 l 771 0 l 582 876 l 594 876 l 406 0 l 274 0 m 358 1101 l 533 1319 l 639 1319 l 814 1101 l 733 1101 l 539 1292 l 635 1292 l 440 1101 l 358 1101 z "},"Ẅ":{"ha":1176,"x_min":58,"x_max":1118,"o":"m 274 0 l 58 1000 l 164 1000 l 353 94 l 338 94 l 525 1000 l 657 1000 l 844 94 l 829 94 l 1018 1000 l 1118 1000 l 901 0 l 771 0 l 582 876 l 594 876 l 406 0 l 274 0 m 671 1167 l 671 1292 l 793 1292 l 793 1167 l 671 1167 m 382 1167 l 382 1292 l 504 1292 l 504 1167 l 382 1167 z "},"Ẁ":{"ha":1176,"x_min":58,"x_max":1118,"o":"m 274 0 l 58 1000 l 164 1000 l 353 94 l 338 94 l 525 1000 l 657 1000 l 844 94 l 829 94 l 1018 1000 l 1118 1000 l 901 0 l 771 0 l 582 876 l 594 876 l 406 0 l 274 0 m 599 1101 l 403 1319 l 547 1319 l 689 1101 l 599 1101 z "},"X":{"ha":781,"x_min":40,"x_max":738,"o":"m 621 0 l 358 472 l 65 1000 l 182 1000 l 424 568 l 738 0 l 621 0 m 375 572 l 622 1000 l 731 1000 l 428 467 l 375 572 m 413 464 l 149 0 l 40 0 l 360 569 l 413 464 z "},"Y":{"ha":778,"x_min":25,"x_max":753,"o":"m 336 0 l 336 460 l 25 1000 l 147 1000 l 417 526 l 371 526 l 640 1000 l 753 1000 l 442 460 l 442 0 l 336 0 z "},"Ý":{"ha":778,"x_min":25,"x_max":753,"o":"m 336 0 l 336 460 l 25 1000 l 147 1000 l 417 526 l 371 526 l 640 1000 l 753 1000 l 442 460 l 442 0 l 336 0 m 378 1101 l 288 1101 l 429 1319 l 574 1319 l 378 1101 z "},"Ŷ":{"ha":778,"x_min":25,"x_max":753,"o":"m 336 0 l 336 460 l 25 1000 l 147 1000 l 417 526 l 371 526 l 640 1000 l 753 1000 l 442 460 l 442 0 l 336 0 m 160 1101 l 335 1319 l 440 1319 l 615 1101 l 535 1101 l 340 1292 l 436 1292 l 242 1101 l 160 1101 z "},"Ÿ":{"ha":778,"x_min":25,"x_max":753,"o":"m 336 0 l 336 460 l 25 1000 l 147 1000 l 417 526 l 371 526 l 640 1000 l 753 1000 l 442 460 l 442 0 l 336 0 m 471 1167 l 471 1292 l 593 1292 l 593 1167 l 471 1167 m 182 1167 l 182 1292 l 304 1292 l 304 1167 l 182 1167 z "},"Ỳ":{"ha":778,"x_min":25,"x_max":753,"o":"m 336 0 l 336 460 l 25 1000 l 147 1000 l 417 526 l 371 526 l 640 1000 l 753 1000 l 442 460 l 442 0 l 336 0 m 400 1101 l 204 1319 l 349 1319 l 490 1101 l 400 1101 z "},"Z":{"ha":742,"x_min":85,"x_max":664,"o":"m 85 0 l 85 79 l 556 957 l 590 907 l 100 907 l 100 1000 l 654 1000 l 654 921 l 182 43 l 149 93 l 664 93 l 664 0 l 85 0 z "},"Ź":{"ha":742,"x_min":85,"x_max":664,"o":"m 85 0 l 85 79 l 556 957 l 590 907 l 100 907 l 100 1000 l 654 1000 l 654 921 l 182 43 l 149 93 l 664 93 l 664 0 l 85 0 m 361 1101 l 271 1101 l 413 1319 l 557 1319 l 361 1101 z "},"Ž":{"ha":742,"x_min":85,"x_max":664,"o":"m 85 0 l 85 79 l 556 957 l 590 907 l 100 907 l 100 1000 l 654 1000 l 654 921 l 182 43 l 149 93 l 664 93 l 664 0 l 85 0 m 318 1101 l 143 1319 l 225 1319 l 419 1129 l 324 1129 l 518 1319 l 599 1319 l 424 1101 l 318 1101 z "},"Ż":{"ha":742,"x_min":85,"x_max":664,"o":"m 85 0 l 85 79 l 556 957 l 590 907 l 100 907 l 100 1000 l 654 1000 l 654 921 l 182 43 l 149 93 l 664 93 l 664 0 l 85 0 m 310 1167 l 310 1292 l 432 1292 l 432 1167 l 310 1167 z "},"a":{"ha":636,"x_min":60,"x_max":557,"o":"m 463 0 q 454 55 457 25 q 451 125 451 85 l 443 125 l 443 506 q 412 601 443 569 q 319 633 381 633 q 215 597 251 633 q 175 503 178 561 l 79 503 q 148 663 82 603 q 326 722 214 722 q 489 666 433 722 q 544 501 544 610 l 544 125 q 547 63 544 94 q 557 0 550 32 l 463 0 m 257 -14 q 113 37 167 -14 q 60 174 60 88 q 112 310 60 257 q 267 394 164 363 l 468 454 l 468 367 l 288 315 q 193 264 225 296 q 161 179 161 232 q 191 102 161 129 q 278 75 221 75 q 397 118 350 75 q 443 231 443 161 l 460 126 q 385 22 440 58 q 257 -14 331 -14 z "},"á":{"ha":636,"x_min":60,"x_max":557,"o":"m 463 0 q 454 55 457 25 q 451 125 451 85 l 443 125 l 443 506 q 412 601 443 569 q 319 633 381 633 q 215 597 251 633 q 175 503 178 561 l 79 503 q 148 663 82 603 q 326 722 214 722 q 489 666 433 722 q 544 501 544 610 l 544 125 q 547 63 544 94 q 557 0 550 32 l 463 0 m 257 -14 q 113 37 167 -14 q 60 174 60 88 q 112 310 60 257 q 267 394 164 363 l 468 454 l 468 367 l 288 315 q 193 264 225 296 q 161 179 161 232 q 191 102 161 129 q 278 75 221 75 q 397 118 350 75 q 443 231 443 161 l 460 126 q 385 22 440 58 q 257 -14 331 -14 m 308 810 l 218 810 l 360 1028 l 504 1028 l 308 810 z "},"ă":{"ha":636,"x_min":60,"x_max":557,"o":"m 463 0 q 454 55 457 25 q 451 125 451 85 l 443 125 l 443 506 q 412 601 443 569 q 319 633 381 633 q 215 597 251 633 q 175 503 178 561 l 79 503 q 148 663 82 603 q 326 722 214 722 q 489 666 433 722 q 544 501 544 610 l 544 125 q 547 63 544 94 q 557 0 550 32 l 463 0 m 257 -14 q 113 37 167 -14 q 60 174 60 88 q 112 310 60 257 q 267 394 164 363 l 468 454 l 468 367 l 288 315 q 193 264 225 296 q 161 179 161 232 q 191 102 161 129 q 278 75 221 75 q 397 118 350 75 q 443 231 443 161 l 460 126 q 385 22 440 58 q 257 -14 331 -14 m 318 804 q 215 830 263 804 q 140 906 168 856 q 113 1028 113 956 l 186 1028 q 222 925 186 961 q 318 889 257 889 q 415 925 381 889 q 450 1028 450 961 l 525 1028 q 497 906 525 956 q 422 830 468 856 q 318 804 376 804 z "},"ǎ":{"ha":636,"x_min":60,"x_max":557,"o":"m 463 0 q 454 55 457 25 q 451 125 451 85 l 443 125 l 443 506 q 412 601 443 569 q 319 633 381 633 q 215 597 251 633 q 175 503 178 561 l 79 503 q 148 663 82 603 q 326 722 214 722 q 489 666 433 722 q 544 501 544 610 l 544 125 q 547 63 544 94 q 557 0 550 32 l 463 0 m 257 -14 q 113 37 167 -14 q 60 174 60 88 q 112 310 60 257 q 267 394 164 363 l 468 454 l 468 367 l 288 315 q 193 264 225 296 q 161 179 161 232 q 191 102 161 129 q 278 75 221 75 q 397 118 350 75 q 443 231 443 161 l 460 126 q 385 22 440 58 q 257 -14 331 -14 m 265 810 l 90 1028 l 172 1028 l 367 838 l 271 838 l 465 1028 l 546 1028 l 371 810 l 265 810 z "},"â":{"ha":636,"x_min":60,"x_max":557,"o":"m 463 0 q 454 55 457 25 q 451 125 451 85 l 443 125 l 443 506 q 412 601 443 569 q 319 633 381 633 q 215 597 251 633 q 175 503 178 561 l 79 503 q 148 663 82 603 q 326 722 214 722 q 489 666 433 722 q 544 501 544 610 l 544 125 q 547 63 544 94 q 557 0 550 32 l 463 0 m 257 -14 q 113 37 167 -14 q 60 174 60 88 q 112 310 60 257 q 267 394 164 363 l 468 454 l 468 367 l 288 315 q 193 264 225 296 q 161 179 161 232 q 191 102 161 129 q 278 75 221 75 q 397 118 350 75 q 443 231 443 161 l 460 126 q 385 22 440 58 q 257 -14 331 -14 m 89 810 l 264 1028 l 369 1028 l 544 810 l 464 810 l 269 1000 l 365 1000 l 171 810 l 89 810 z "},"ä":{"ha":636,"x_min":60,"x_max":557,"o":"m 463 0 q 454 55 457 25 q 451 125 451 85 l 443 125 l 443 506 q 412 601 443 569 q 319 633 381 633 q 215 597 251 633 q 175 503 178 561 l 79 503 q 148 663 82 603 q 326 722 214 722 q 489 666 433 722 q 544 501 544 610 l 544 125 q 547 63 544 94 q 557 0 550 32 l 463 0 m 257 -14 q 113 37 167 -14 q 60 174 60 88 q 112 310 60 257 q 267 394 164 363 l 468 454 l 468 367 l 288 315 q 193 264 225 296 q 161 179 161 232 q 191 102 161 129 q 278 75 221 75 q 397 118 350 75 q 443 231 443 161 l 460 126 q 385 22 440 58 q 257 -14 331 -14 m 401 875 l 401 1000 l 524 1000 l 524 875 l 401 875 m 113 875 l 113 1000 l 235 1000 l 235 875 l 113 875 z "},"à":{"ha":636,"x_min":60,"x_max":557,"o":"m 463 0 q 454 55 457 25 q 451 125 451 85 l 443 125 l 443 506 q 412 601 443 569 q 319 633 381 633 q 215 597 251 633 q 175 503 178 561 l 79 503 q 148 663 82 603 q 326 722 214 722 q 489 666 433 722 q 544 501 544 610 l 544 125 q 547 63 544 94 q 557 0 550 32 l 463 0 m 257 -14 q 113 37 167 -14 q 60 174 60 88 q 112 310 60 257 q 267 394 164 363 l 468 454 l 468 367 l 288 315 q 193 264 225 296 q 161 179 161 232 q 191 102 161 129 q 278 75 221 75 q 397 118 350 75 q 443 231 443 161 l 460 126 q 385 22 440 58 q 257 -14 331 -14 m 329 810 l 133 1028 l 278 1028 l 419 810 l 329 810 z "},"ā":{"ha":636,"x_min":60,"x_max":557,"o":"m 463 0 q 454 55 457 25 q 451 125 451 85 l 443 125 l 443 506 q 412 601 443 569 q 319 633 381 633 q 215 597 251 633 q 175 503 178 561 l 79 503 q 148 663 82 603 q 326 722 214 722 q 489 666 433 722 q 544 501 544 610 l 544 125 q 547 63 544 94 q 557 0 550 32 l 463 0 m 257 -14 q 113 37 167 -14 q 60 174 60 88 q 112 310 60 257 q 267 394 164 363 l 468 454 l 468 367 l 288 315 q 193 264 225 296 q 161 179 161 232 q 191 102 161 129 q 278 75 221 75 q 397 118 350 75 q 443 231 443 161 l 460 126 q 385 22 440 58 q 257 -14 331 -14 m 107 896 l 107 968 l 531 968 l 531 896 l 107 896 z "},"ą":{"ha":636,"x_min":60,"x_max":560,"o":"m 463 0 q 454 55 457 25 q 451 125 451 85 l 443 125 l 443 506 q 412 601 443 569 q 319 633 381 633 q 215 597 251 633 q 175 503 178 561 l 79 503 q 148 663 82 603 q 326 722 214 722 q 489 666 433 722 q 544 501 544 610 l 544 125 q 547 63 544 94 q 557 0 550 32 l 463 0 m 257 -14 q 113 37 167 -14 q 60 174 60 88 q 112 310 60 257 q 267 394 164 363 l 468 454 l 468 367 l 288 315 q 193 264 225 296 q 161 179 161 232 q 191 102 161 129 q 278 75 221 75 q 397 118 350 75 q 443 231 443 161 l 460 126 q 385 22 440 58 q 257 -14 331 -14 m 461 -300 q 379 -270 408 -300 q 350 -193 350 -240 q 400 -75 350 -132 q 526 24 450 -18 l 557 0 q 460 -89 496 -44 q 424 -183 424 -133 q 437 -222 424 -208 q 469 -235 450 -235 q 519 -212 497 -235 l 560 -262 q 517 -290 540 -281 q 461 -300 493 -300 z "},"å":{"ha":636,"x_min":60,"x_max":557,"o":"m 463 0 q 454 55 457 25 q 451 125 451 85 l 443 125 l 443 506 q 412 601 443 569 q 319 633 381 633 q 215 597 251 633 q 175 503 178 561 l 79 503 q 148 663 82 603 q 326 722 214 722 q 489 666 433 722 q 544 501 544 610 l 544 125 q 547 63 544 94 q 557 0 550 32 l 463 0 m 257 -14 q 113 37 167 -14 q 60 174 60 88 q 112 310 60 257 q 267 394 164 363 l 468 454 l 468 367 l 288 315 q 193 264 225 296 q 161 179 161 232 q 191 102 161 129 q 278 75 221 75 q 397 118 350 75 q 443 231 443 161 l 460 126 q 385 22 440 58 q 257 -14 331 -14 m 319 779 q 213 823 256 779 q 169 929 169 867 q 213 1034 169 990 q 319 1078 256 1078 q 426 1034 383 1078 q 468 929 468 990 q 426 823 468 867 q 319 779 383 779 m 319 842 q 380 867 357 842 q 403 929 403 893 q 379 990 403 965 q 319 1015 356 1015 q 258 990 282 1015 q 235 929 235 965 q 258 867 235 893 q 319 842 282 842 z "},"ã":{"ha":636,"x_min":60,"x_max":557,"o":"m 463 0 q 454 55 457 25 q 451 125 451 85 l 443 125 l 443 506 q 412 601 443 569 q 319 633 381 633 q 215 597 251 633 q 175 503 178 561 l 79 503 q 148 663 82 603 q 326 722 214 722 q 489 666 433 722 q 544 501 544 610 l 544 125 q 547 63 544 94 q 557 0 550 32 l 463 0 m 257 -14 q 113 37 167 -14 q 60 174 60 88 q 112 310 60 257 q 267 394 164 363 l 468 454 l 468 367 l 288 315 q 193 264 225 296 q 161 179 161 232 q 191 102 161 129 q 278 75 221 75 q 397 118 350 75 q 443 231 443 161 l 460 126 q 385 22 440 58 q 257 -14 331 -14 m 415 829 q 351 844 378 829 q 302 877 324 858 q 260 910 281 896 q 215 925 240 925 q 172 906 189 925 q 156 843 156 886 l 86 843 q 103 931 86 896 q 153 985 121 967 q 225 1003 185 1003 q 290 988 264 1003 q 337 955 317 974 q 376 922 357 936 q 421 907 396 907 q 465 926 449 907 q 482 989 482 946 l 551 989 q 534 902 551 938 q 485 848 517 867 q 415 829 454 829 z "},"æ":{"ha":1021,"x_min":60,"x_max":968,"o":"m 436 181 l 436 506 q 406 601 436 569 q 317 633 375 633 q 214 597 250 633 q 176 503 178 561 l 79 503 q 147 663 82 603 q 322 722 211 722 q 484 666 429 722 q 539 501 539 610 l 539 181 l 436 181 m 254 -14 q 112 36 164 -14 q 60 171 60 86 q 110 309 60 251 q 276 394 160 367 l 461 436 l 461 350 l 299 315 q 193 263 224 299 q 163 176 163 226 q 192 101 163 128 q 276 75 221 75 q 360 94 324 75 q 416 149 396 114 q 436 231 436 185 l 515 175 q 410 28 479 69 q 254 -14 340 -14 m 708 -14 q 567 32 625 -14 q 478 160 508 78 q 447 354 447 243 q 480 549 447 467 q 573 677 513 632 q 718 722 633 722 q 852 681 796 722 q 938 561 908 640 q 968 367 968 482 q 968 348 968 357 q 967 328 968 339 l 506 328 l 506 414 l 908 414 l 871 360 q 831 566 869 499 q 714 633 793 633 q 623 600 663 633 q 561 505 583 567 q 539 354 539 443 q 585 149 539 224 q 711 75 632 75 q 806 111 768 75 q 858 211 843 147 l 954 211 q 868 47 933 108 q 708 -14 803 -14 z "},"b":{"ha":728,"x_min":100,"x_max":672,"o":"m 397 -14 q 258 31 315 -14 q 182 158 200 75 l 193 165 l 193 0 l 100 0 l 100 1000 l 201 1000 l 201 554 l 190 563 q 270 681 211 639 q 408 722 329 722 q 549 678 490 722 q 640 552 608 633 q 672 360 672 471 q 638 162 672 246 q 542 32 604 78 q 397 -14 481 -14 m 382 78 q 519 149 472 78 q 567 356 567 221 q 519 560 567 490 q 381 631 471 631 q 243 560 292 631 q 194 354 194 489 q 244 149 194 219 q 382 78 293 78 z "},"c":{"ha":633,"x_min":53,"x_max":586,"o":"m 332 -14 q 185 32 249 -14 q 88 161 122 78 q 53 356 53 244 q 88 550 53 468 q 188 677 124 632 q 336 722 251 722 q 461 690 407 722 q 547 599 515 658 q 585 461 579 540 l 488 461 q 443 588 482 542 q 338 633 404 633 q 240 601 281 633 q 179 507 200 569 q 158 356 158 444 q 179 205 158 268 q 240 108 200 142 q 335 75 279 75 q 441 123 400 75 q 489 247 482 171 l 586 247 q 546 110 579 169 q 458 19 513 51 q 332 -14 403 -14 z "},"ć":{"ha":633,"x_min":53,"x_max":586,"o":"m 332 -14 q 185 32 249 -14 q 88 161 122 78 q 53 356 53 244 q 88 550 53 468 q 188 677 124 632 q 336 722 251 722 q 461 690 407 722 q 547 599 515 658 q 585 461 579 540 l 488 461 q 443 588 482 542 q 338 633 404 633 q 240 601 281 633 q 179 507 200 569 q 158 356 158 444 q 179 205 158 268 q 240 108 200 142 q 335 75 279 75 q 441 123 400 75 q 489 247 482 171 l 586 247 q 546 110 579 169 q 458 19 513 51 q 332 -14 403 -14 m 326 810 l 236 810 l 378 1028 l 522 1028 l 326 810 z "},"č":{"ha":633,"x_min":53,"x_max":586,"o":"m 332 -14 q 185 32 249 -14 q 88 161 122 78 q 53 356 53 244 q 88 550 53 468 q 188 677 124 632 q 336 722 251 722 q 461 690 407 722 q 547 599 515 658 q 585 461 579 540 l 488 461 q 443 588 482 542 q 338 633 404 633 q 240 601 281 633 q 179 507 200 569 q 158 356 158 444 q 179 205 158 268 q 240 108 200 142 q 335 75 279 75 q 441 123 400 75 q 489 247 482 171 l 586 247 q 546 110 579 169 q 458 19 513 51 q 332 -14 403 -14 m 283 810 l 108 1028 l 190 1028 l 385 838 l 289 838 l 483 1028 l 564 1028 l 389 810 l 283 810 z "},"ç":{"ha":633,"x_min":53,"x_max":586,"o":"m 332 -14 q 185 32 249 -14 q 88 161 122 78 q 53 356 53 244 q 88 550 53 468 q 188 677 124 632 q 336 722 251 722 q 461 690 407 722 q 547 599 515 658 q 585 461 579 540 l 488 461 q 443 588 482 542 q 338 633 404 633 q 240 601 281 633 q 179 507 200 569 q 158 356 158 444 q 179 205 158 268 q 240 108 200 142 q 335 75 279 75 q 441 123 400 75 q 489 247 482 171 l 586 247 q 546 110 579 169 q 458 19 513 51 q 332 -14 403 -14 m 321 -299 q 218 -266 257 -299 q 176 -181 179 -233 l 246 -181 q 272 -221 249 -208 q 325 -233 294 -233 q 374 -220 354 -233 q 394 -185 394 -207 q 368 -140 394 -158 q 275 -118 342 -121 l 304 17 l 375 17 l 356 -67 q 442 -112 417 -79 q 467 -183 467 -144 q 426 -269 467 -239 q 321 -299 385 -299 z "},"ċ":{"ha":633,"x_min":53,"x_max":586,"o":"m 332 -14 q 185 32 249 -14 q 88 161 122 78 q 53 356 53 244 q 88 550 53 468 q 188 677 124 632 q 336 722 251 722 q 461 690 407 722 q 547 599 515 658 q 585 461 579 540 l 488 461 q 443 588 482 542 q 338 633 404 633 q 240 601 281 633 q 179 507 200 569 q 158 356 158 444 q 179 205 158 268 q 240 108 200 142 q 335 75 279 75 q 441 123 400 75 q 489 247 482 171 l 586 247 q 546 110 579 169 q 458 19 513 51 q 332 -14 403 -14 m 276 875 l 276 1000 l 399 1000 l 399 875 l 276 875 z "},"d":{"ha":728,"x_min":56,"x_max":628,"o":"m 533 0 l 533 154 l 544 146 q 465 28 524 69 q 325 -14 406 -14 q 181 31 242 -14 q 88 156 121 75 q 56 349 56 238 q 90 547 56 464 q 185 676 124 631 q 331 722 247 722 q 471 678 413 722 q 546 550 529 633 l 526 543 l 526 1000 l 628 1000 l 628 0 l 533 0 m 347 78 q 485 149 438 78 q 533 354 533 219 q 484 560 533 489 q 346 631 435 631 q 208 560 256 631 q 161 353 161 489 q 209 148 161 218 q 347 78 257 78 z "},"ð":{"ha":707,"x_min":49,"x_max":651,"o":"m 339 -14 q 188 26 254 -14 q 85 146 122 67 q 49 339 49 225 q 85 532 49 453 q 184 652 121 611 q 326 693 247 693 q 439 669 389 693 q 523 603 489 646 q 568 500 557 560 l 546 457 l 546 506 q 492 740 546 646 q 342 881 438 833 q 117 928 246 928 l 133 1014 q 338 979 243 1014 q 503 875 433 944 q 613 702 574 806 q 651 458 651 599 q 570 109 651 232 q 339 -14 489 -14 m 338 79 q 443 109 399 79 q 513 199 488 139 q 538 350 538 260 q 512 493 538 438 q 442 576 486 549 q 342 603 399 603 q 205 539 254 603 q 156 340 156 475 q 178 192 156 250 q 242 107 200 135 q 338 79 283 79 m 221 744 l 178 806 l 514 1047 l 557 988 l 221 744 z "},"ď":{"ha":779,"x_min":56,"x_max":810,"o":"m 533 0 l 533 154 l 544 146 q 465 28 524 69 q 325 -14 406 -14 q 181 31 242 -14 q 88 156 121 75 q 56 349 56 238 q 90 547 56 464 q 185 676 124 631 q 331 722 247 722 q 471 678 413 722 q 546 550 529 633 l 526 543 l 526 1000 l 628 1000 l 628 0 l 533 0 m 347 78 q 485 149 438 78 q 533 354 533 219 q 484 560 533 489 q 346 631 435 631 q 208 560 256 631 q 161 353 161 489 q 209 148 161 218 q 347 78 257 78 m 774 699 l 711 699 l 711 1000 l 810 1000 l 774 699 z "},"đ":{"ha":728,"x_min":56,"x_max":728,"o":"m 311 826 l 311 900 l 728 900 l 728 826 l 311 826 m 533 0 l 533 154 l 544 146 q 465 28 524 69 q 325 -14 406 -14 q 181 31 242 -14 q 88 156 121 75 q 56 349 56 238 q 90 547 56 464 q 185 676 124 631 q 331 722 247 722 q 471 678 413 722 q 546 550 529 633 l 526 543 l 526 1000 l 628 1000 l 628 0 l 533 0 m 347 78 q 485 149 438 78 q 533 354 533 219 q 484 560 533 489 q 346 631 435 631 q 208 560 256 631 q 161 353 161 489 q 209 148 161 218 q 347 78 257 78 z "},"e":{"ha":667,"x_min":53,"x_max":614,"o":"m 340 -14 q 189 32 254 -14 q 88 160 124 78 q 53 354 53 243 q 90 549 53 467 q 193 677 126 632 q 350 722 260 722 q 492 681 433 722 q 582 561 550 640 q 614 367 614 482 q 613 348 614 357 q 613 328 613 339 l 125 328 l 125 414 l 553 414 l 515 360 q 472 566 515 499 q 346 633 429 633 q 208 560 258 633 q 158 354 158 488 q 208 149 158 224 q 344 75 257 75 q 448 111 407 75 q 503 211 489 147 l 600 211 q 510 47 579 108 q 340 -14 442 -14 z "},"é":{"ha":667,"x_min":53,"x_max":614,"o":"m 340 -14 q 189 32 254 -14 q 88 160 124 78 q 53 354 53 243 q 90 549 53 467 q 193 677 126 632 q 350 722 260 722 q 492 681 433 722 q 582 561 550 640 q 614 367 614 482 q 613 348 614 357 q 613 328 613 339 l 125 328 l 125 414 l 553 414 l 515 360 q 472 566 515 499 q 346 633 429 633 q 208 560 258 633 q 158 354 158 488 q 208 149 158 224 q 344 75 257 75 q 448 111 407 75 q 503 211 489 147 l 600 211 q 510 47 579 108 q 340 -14 442 -14 m 339 810 l 249 810 l 390 1028 l 535 1028 l 339 810 z "},"ě":{"ha":667,"x_min":53,"x_max":614,"o":"m 340 -14 q 189 32 254 -14 q 88 160 124 78 q 53 354 53 243 q 90 549 53 467 q 193 677 126 632 q 350 722 260 722 q 492 681 433 722 q 582 561 550 640 q 614 367 614 482 q 613 348 614 357 q 613 328 613 339 l 125 328 l 125 414 l 553 414 l 515 360 q 472 566 515 499 q 346 633 429 633 q 208 560 258 633 q 158 354 158 488 q 208 149 158 224 q 344 75 257 75 q 448 111 407 75 q 503 211 489 147 l 600 211 q 510 47 579 108 q 340 -14 442 -14 m 296 810 l 121 1028 l 203 1028 l 397 838 l 301 838 l 496 1028 l 576 1028 l 401 810 l 296 810 z "},"ê":{"ha":667,"x_min":53,"x_max":614,"o":"m 340 -14 q 189 32 254 -14 q 88 160 124 78 q 53 354 53 243 q 90 549 53 467 q 193 677 126 632 q 350 722 260 722 q 492 681 433 722 q 582 561 550 640 q 614 367 614 482 q 613 348 614 357 q 613 328 613 339 l 125 328 l 125 414 l 553 414 l 515 360 q 472 566 515 499 q 346 633 429 633 q 208 560 258 633 q 158 354 158 488 q 208 149 158 224 q 344 75 257 75 q 448 111 407 75 q 503 211 489 147 l 600 211 q 510 47 579 108 q 340 -14 442 -14 m 119 810 l 294 1028 l 400 1028 l 575 810 l 494 810 l 300 1000 l 396 1000 l 201 810 l 119 810 z "},"ë":{"ha":667,"x_min":53,"x_max":614,"o":"m 340 -14 q 189 32 254 -14 q 88 160 124 78 q 53 354 53 243 q 90 549 53 467 q 193 677 126 632 q 350 722 260 722 q 492 681 433 722 q 582 561 550 640 q 614 367 614 482 q 613 348 614 357 q 613 328 613 339 l 125 328 l 125 414 l 553 414 l 515 360 q 472 566 515 499 q 346 633 429 633 q 208 560 258 633 q 158 354 158 488 q 208 149 158 224 q 344 75 257 75 q 448 111 407 75 q 503 211 489 147 l 600 211 q 510 47 579 108 q 340 -14 442 -14 m 432 875 l 432 1000 l 554 1000 l 554 875 l 432 875 m 143 875 l 143 1000 l 265 1000 l 265 875 l 143 875 z "},"ė":{"ha":667,"x_min":53,"x_max":614,"o":"m 340 -14 q 189 32 254 -14 q 88 160 124 78 q 53 354 53 243 q 90 549 53 467 q 193 677 126 632 q 350 722 260 722 q 492 681 433 722 q 582 561 550 640 q 614 367 614 482 q 613 348 614 357 q 613 328 613 339 l 125 328 l 125 414 l 553 414 l 515 360 q 472 566 515 499 q 346 633 429 633 q 208 560 258 633 q 158 354 158 488 q 208 149 158 224 q 344 75 257 75 q 448 111 407 75 q 503 211 489 147 l 600 211 q 510 47 579 108 q 340 -14 442 -14 m 289 875 l 289 1000 l 411 1000 l 411 875 l 289 875 z "},"è":{"ha":667,"x_min":53,"x_max":614,"o":"m 340 -14 q 189 32 254 -14 q 88 160 124 78 q 53 354 53 243 q 90 549 53 467 q 193 677 126 632 q 350 722 260 722 q 492 681 433 722 q 582 561 550 640 q 614 367 614 482 q 613 348 614 357 q 613 328 613 339 l 125 328 l 125 414 l 553 414 l 515 360 q 472 566 515 499 q 346 633 429 633 q 208 560 258 633 q 158 354 158 488 q 208 149 158 224 q 344 75 257 75 q 448 111 407 75 q 503 211 489 147 l 600 211 q 510 47 579 108 q 340 -14 442 -14 m 360 810 l 164 1028 l 308 1028 l 450 810 l 360 810 z "},"ē":{"ha":667,"x_min":53,"x_max":614,"o":"m 340 -14 q 189 32 254 -14 q 88 160 124 78 q 53 354 53 243 q 90 549 53 467 q 193 677 126 632 q 350 722 260 722 q 492 681 433 722 q 582 561 550 640 q 614 367 614 482 q 613 348 614 357 q 613 328 613 339 l 125 328 l 125 414 l 553 414 l 515 360 q 472 566 515 499 q 346 633 429 633 q 208 560 258 633 q 158 354 158 488 q 208 149 158 224 q 344 75 257 75 q 448 111 407 75 q 503 211 489 147 l 600 211 q 510 47 579 108 q 340 -14 442 -14 m 138 896 l 138 968 l 561 968 l 561 896 l 138 896 z "},"ę":{"ha":667,"x_min":53,"x_max":614,"o":"m 340 -14 q 189 32 254 -14 q 88 160 124 78 q 53 354 53 243 q 90 549 53 467 q 193 677 126 632 q 350 722 260 722 q 492 681 433 722 q 582 561 550 640 q 614 367 614 482 q 613 348 614 357 q 613 328 613 339 l 125 328 l 125 414 l 553 414 l 515 360 q 472 566 515 499 q 346 633 429 633 q 208 560 258 633 q 158 354 158 488 q 208 149 158 224 q 344 75 257 75 q 448 111 407 75 q 503 211 489 147 l 600 211 q 510 47 579 108 q 340 -14 442 -14 m 389 -272 q 307 -242 336 -272 q 278 -165 278 -212 q 328 -47 278 -104 q 454 51 378 10 l 485 28 q 388 -61 424 -17 q 351 -156 351 -106 q 365 -194 351 -181 q 397 -207 378 -207 q 447 -185 425 -207 l 488 -235 q 444 -262 468 -253 q 389 -272 421 -272 z "},"f":{"ha":419,"x_min":19,"x_max":399,"o":"m 139 0 l 139 835 q 188 967 139 919 q 333 1014 238 1014 q 375 1012 361 1014 q 399 1006 389 1010 l 399 922 q 377 927 392 925 q 344 929 363 929 q 267 902 292 929 q 242 828 242 875 l 242 0 l 139 0 m 19 621 l 19 708 l 386 708 l 386 621 l 19 621 z "},"g":{"ha":728,"x_min":56,"x_max":628,"o":"m 343 -299 q 162 -242 232 -299 q 81 -92 92 -185 l 176 -92 q 229 -178 185 -147 q 349 -210 274 -210 q 481 -160 436 -210 q 526 -14 526 -111 l 526 165 l 538 164 q 463 44 522 89 q 319 0 403 0 q 180 44 239 0 q 88 167 121 88 q 56 356 56 247 q 90 550 56 468 q 186 677 124 632 q 333 722 249 722 q 475 676 418 722 q 546 550 532 631 l 535 550 l 535 708 l 628 708 l 628 -7 q 553 -222 628 -144 q 343 -299 478 -299 m 347 90 q 485 160 436 90 q 533 363 533 231 q 484 562 533 493 q 346 631 435 631 q 209 561 257 631 q 161 361 161 492 q 210 160 161 231 q 347 90 258 90 z "},"ğ":{"ha":728,"x_min":56,"x_max":628,"o":"m 343 -299 q 162 -242 232 -299 q 81 -92 92 -185 l 176 -92 q 229 -178 185 -147 q 349 -210 274 -210 q 481 -160 436 -210 q 526 -14 526 -111 l 526 165 l 538 164 q 463 44 522 89 q 319 0 403 0 q 180 44 239 0 q 88 167 121 88 q 56 356 56 247 q 90 550 56 468 q 186 677 124 632 q 333 722 249 722 q 475 676 418 722 q 546 550 532 631 l 535 550 l 535 708 l 628 708 l 628 -7 q 553 -222 628 -144 q 343 -299 478 -299 m 347 90 q 485 160 436 90 q 533 363 533 231 q 484 562 533 493 q 346 631 435 631 q 209 561 257 631 q 161 361 161 492 q 210 160 161 231 q 347 90 258 90 m 346 804 q 243 830 290 804 q 168 906 196 856 q 140 1028 140 956 l 214 1028 q 249 925 214 961 q 346 889 285 889 q 443 925 408 889 q 478 1028 478 961 l 553 1028 q 524 906 553 956 q 450 830 496 856 q 346 804 404 804 z "},"ģ":{"ha":728,"x_min":56,"x_max":628,"o":"m 343 -299 q 162 -242 232 -299 q 81 -92 92 -185 l 176 -92 q 229 -178 185 -147 q 349 -210 274 -210 q 481 -160 436 -210 q 526 -14 526 -111 l 526 165 l 538 164 q 463 44 522 89 q 319 0 403 0 q 180 44 239 0 q 88 167 121 88 q 56 356 56 247 q 90 550 56 468 q 186 677 124 632 q 333 722 249 722 q 475 676 418 722 q 546 550 532 631 l 535 550 l 535 708 l 628 708 l 628 -7 q 553 -222 628 -144 q 343 -299 478 -299 m 347 90 q 485 160 436 90 q 533 363 533 231 q 484 562 533 493 q 346 631 435 631 q 209 561 257 631 q 161 361 161 492 q 210 160 161 231 q 347 90 258 90 m 276 807 l 276 910 q 310 1031 276 981 q 415 1103 343 1082 l 415 1049 q 357 1007 376 1035 q 338 935 338 979 l 299 942 l 415 942 l 415 807 l 276 807 z "},"ġ":{"ha":728,"x_min":56,"x_max":628,"o":"m 343 -299 q 162 -242 232 -299 q 81 -92 92 -185 l 176 -92 q 229 -178 185 -147 q 349 -210 274 -210 q 481 -160 436 -210 q 526 -14 526 -111 l 526 165 l 538 164 q 463 44 522 89 q 319 0 403 0 q 180 44 239 0 q 88 167 121 88 q 56 356 56 247 q 90 550 56 468 q 186 677 124 632 q 333 722 249 722 q 475 676 418 722 q 546 550 532 631 l 535 550 l 535 708 l 628 708 l 628 -7 q 553 -222 628 -144 q 343 -299 478 -299 m 347 90 q 485 160 436 90 q 533 363 533 231 q 484 562 533 493 q 346 631 435 631 q 209 561 257 631 q 161 361 161 492 q 210 160 161 231 q 347 90 258 90 m 285 875 l 285 1000 l 407 1000 l 407 875 l 285 875 z "},"h":{"ha":718,"x_min":100,"x_max":626,"o":"m 100 0 l 100 1000 l 201 1000 l 201 0 l 100 0 m 524 0 l 524 492 q 492 597 524 563 q 397 631 460 631 q 294 603 338 631 q 226 529 250 576 q 201 422 201 482 l 188 568 q 280 681 218 639 q 422 722 342 722 q 571 667 515 722 q 626 518 626 611 l 626 0 l 524 0 z "},"ħ":{"ha":718,"x_min":0,"x_max":626,"o":"m 0 826 l 0 900 l 417 900 l 417 826 l 0 826 m 100 0 l 100 1000 l 201 1000 l 201 0 l 100 0 m 524 0 l 524 492 q 492 597 524 563 q 397 631 460 631 q 294 603 338 631 q 226 529 250 576 q 201 422 201 482 l 188 568 q 280 681 218 639 q 422 722 342 722 q 571 667 515 722 q 626 518 626 611 l 626 0 l 524 0 z "},"i":{"ha":301,"x_min":90,"x_max":213,"o":"m 100 0 l 100 708 l 201 708 l 201 0 l 100 0 m 90 875 l 90 1000 l 213 1000 l 213 875 l 90 875 z "},"ı":{"ha":301,"x_min":100,"x_max":201,"o":"m 100 0 l 100 708 l 201 708 l 201 0 l 100 0 z "},"í":{"ha":301,"x_min":50,"x_max":336,"o":"m 100 0 l 100 708 l 201 708 l 201 0 l 100 0 m 140 810 l 50 810 l 192 1028 l 336 1028 l 140 810 z "},"î":{"ha":301,"x_min":-79,"x_max":378,"o":"m 100 0 l 100 708 l 201 708 l 201 0 l 100 0 m -79 810 l 96 1028 l 201 1028 l 376 810 l 296 810 l 101 1000 l 197 1000 l 3 810 l -79 810 z "},"ï":{"ha":301,"x_min":-56,"x_max":356,"o":"m 100 0 l 100 708 l 201 708 l 201 0 l 100 0 m 233 875 l 233 1000 l 356 1000 l 356 875 l 233 875 m -56 875 l -56 1000 l 67 1000 l 67 875 l -56 875 z "},"ì":{"ha":301,"x_min":-35,"x_max":251,"o":"m 100 0 l 100 708 l 201 708 l 201 0 l 100 0 m 161 810 l -35 1028 l 110 1028 l 251 810 l 161 810 z "},"ĳ":{"ha":601,"x_min":90,"x_max":511,"o":"m 100 0 l 100 708 l 201 708 l 201 0 l 100 0 m 90 875 l 90 1000 l 213 1000 l 213 875 l 90 875 m 329 -299 q 288 -297 303 -299 q 263 -290 272 -294 l 263 -207 q 285 -212 271 -210 q 317 -214 300 -214 q 381 -195 361 -214 q 400 -137 400 -176 l 400 708 l 501 708 l 501 -143 q 459 -257 501 -215 q 329 -299 417 -299 m 389 875 l 389 1000 l 511 1000 l 511 875 l 389 875 z "},"ī":{"ha":301,"x_min":-61,"x_max":363,"o":"m 100 0 l 100 708 l 201 708 l 201 0 l 100 0 m -61 896 l -61 968 l 363 968 l 363 896 l -61 896 z "},"į":{"ha":301,"x_min":-4,"x_max":213,"o":"m 100 0 l 100 708 l 201 708 l 201 0 l 100 0 m 90 875 l 90 1000 l 213 1000 l 213 875 l 90 875 m 107 -300 q 25 -270 54 -300 q -4 -193 -4 -240 q 46 -75 -4 -132 q 172 24 96 -18 l 203 0 q 106 -89 142 -44 q 69 -183 69 -133 q 83 -222 69 -208 q 115 -235 96 -235 q 165 -212 143 -235 l 206 -262 q 163 -290 186 -281 q 107 -300 139 -300 z "},"j":{"ha":301,"x_min":-37,"x_max":213,"o":"m 29 -299 q -12 -297 3 -299 q -37 -290 -28 -294 l -37 -207 q -15 -212 -29 -210 q 17 -214 0 -214 q 81 -195 61 -214 q 100 -137 100 -176 l 100 708 l 201 708 l 201 -143 q 159 -257 201 -215 q 29 -299 117 -299 m 90 875 l 90 1000 l 213 1000 l 213 875 l 90 875 z "},"ȷ":{"ha":301,"x_min":-37,"x_max":201,"o":"m 29 -299 q -12 -297 3 -299 q -37 -290 -28 -294 l -37 -207 q -15 -212 -29 -210 q 17 -214 0 -214 q 81 -195 61 -214 q 100 -137 100 -176 l 100 708 l 201 708 l 201 -143 q 159 -257 201 -215 q 29 -299 117 -299 z "},"k":{"ha":644,"x_min":100,"x_max":628,"o":"m 100 0 l 100 1014 l 201 1014 l 201 0 l 100 0 m 497 0 l 182 368 l 486 708 l 614 708 l 276 339 l 279 401 l 628 0 l 497 0 z "},"ķ":{"ha":644,"x_min":100,"x_max":628,"o":"m 100 0 l 100 1014 l 201 1014 l 201 0 l 100 0 m 497 0 l 182 368 l 486 708 l 614 708 l 276 339 l 279 401 l 628 0 l 497 0 m 281 -394 l 281 -340 q 339 -299 319 -326 q 358 -228 358 -271 l 397 -233 l 281 -233 l 281 -99 l 419 -99 l 419 -203 q 385 -324 419 -274 q 281 -394 351 -374 z "},"l":{"ha":301,"x_min":100,"x_max":201,"o":"m 100 0 l 100 1000 l 201 1000 l 201 0 l 100 0 z "},"ĺ":{"ha":301,"x_min":50,"x_max":336,"o":"m 100 0 l 100 1000 l 201 1000 l 201 0 l 100 0 m 140 1101 l 50 1101 l 192 1319 l 336 1319 l 140 1101 z "},"ľ":{"ha":353,"x_min":100,"x_max":383,"o":"m 100 0 l 100 1000 l 201 1000 l 201 0 l 100 0 m 347 699 l 285 699 l 285 1000 l 383 1000 l 347 699 z "},"ļ":{"ha":301,"x_min":81,"x_max":219,"o":"m 100 0 l 100 1000 l 201 1000 l 201 0 l 100 0 m 81 -394 l 81 -340 q 139 -299 119 -326 q 158 -228 158 -271 l 197 -233 l 81 -233 l 81 -99 l 219 -99 l 219 -203 q 185 -324 219 -274 q 81 -394 151 -374 z "},"ł":{"ha":315,"x_min":-1,"x_max":315,"o":"m 161 486 l -1 413 l -1 494 l 158 567 l 161 486 m 158 572 l 315 644 l 315 563 l 161 492 l 158 572 m 107 0 l 107 1000 l 208 1000 l 208 0 l 107 0 z "},"m":{"ha":1103,"x_min":100,"x_max":1011,"o":"m 100 0 l 100 708 l 194 708 l 194 558 l 201 558 l 201 0 l 100 0 m 504 0 l 504 501 q 475 599 504 568 q 389 631 446 631 q 292 603 335 631 q 226 530 250 576 q 201 422 201 483 l 188 568 q 278 681 218 639 q 413 722 339 722 q 553 668 500 722 q 607 521 607 614 l 607 0 l 504 0 m 908 0 l 908 501 q 879 599 908 568 q 793 631 850 631 q 697 604 739 631 q 631 531 654 578 q 607 422 607 485 l 579 572 q 676 682 614 642 q 811 722 738 722 q 956 668 900 722 q 1011 521 1011 614 l 1011 0 l 908 0 z "},"n":{"ha":718,"x_min":100,"x_max":626,"o":"m 100 0 l 100 708 l 194 708 l 194 558 l 201 558 l 201 0 l 100 0 m 524 0 l 524 492 q 492 597 524 563 q 397 631 460 631 q 294 603 338 631 q 226 529 250 576 q 201 422 201 482 l 188 568 q 280 681 218 639 q 422 722 342 722 q 571 667 515 722 q 626 518 626 611 l 626 0 l 524 0 z "},"ń":{"ha":718,"x_min":100,"x_max":626,"o":"m 100 0 l 100 708 l 194 708 l 194 558 l 201 558 l 201 0 l 100 0 m 524 0 l 524 492 q 492 597 524 563 q 397 631 460 631 q 294 603 338 631 q 226 529 250 576 q 201 422 201 482 l 188 568 q 280 681 218 639 q 422 722 342 722 q 571 667 515 722 q 626 518 626 611 l 626 0 l 524 0 m 379 810 l 289 810 l 431 1028 l 575 1028 l 379 810 z "},"ň":{"ha":718,"x_min":100,"x_max":626,"o":"m 100 0 l 100 708 l 194 708 l 194 558 l 201 558 l 201 0 l 100 0 m 524 0 l 524 492 q 492 597 524 563 q 397 631 460 631 q 294 603 338 631 q 226 529 250 576 q 201 422 201 482 l 188 568 q 280 681 218 639 q 422 722 342 722 q 571 667 515 722 q 626 518 626 611 l 626 0 l 524 0 m 336 810 l 161 1028 l 243 1028 l 438 838 l 342 838 l 536 1028 l 617 1028 l 442 810 l 336 810 z "},"ņ":{"ha":718,"x_min":100,"x_max":626,"o":"m 100 0 l 100 708 l 194 708 l 194 558 l 201 558 l 201 0 l 100 0 m 524 0 l 524 492 q 492 597 524 563 q 397 631 460 631 q 294 603 338 631 q 226 529 250 576 q 201 422 201 482 l 188 568 q 280 681 218 639 q 422 722 342 722 q 571 667 515 722 q 626 518 626 611 l 626 0 l 524 0 m 300 -394 l 300 -340 q 358 -299 339 -326 q 378 -228 378 -271 l 417 -233 l 300 -233 l 300 -99 l 439 -99 l 439 -203 q 405 -324 439 -274 q 300 -394 371 -374 z "},"ñ":{"ha":718,"x_min":100,"x_max":626,"o":"m 100 0 l 100 708 l 194 708 l 194 558 l 201 558 l 201 0 l 100 0 m 524 0 l 524 492 q 492 597 524 563 q 397 631 460 631 q 294 603 338 631 q 226 529 250 576 q 201 422 201 482 l 188 568 q 280 681 218 639 q 422 722 342 722 q 571 667 515 722 q 626 518 626 611 l 626 0 l 524 0 m 486 829 q 422 844 449 829 q 373 877 394 858 q 331 910 351 896 q 286 925 311 925 q 243 906 260 925 q 226 843 226 886 l 157 843 q 174 931 157 896 q 224 985 192 967 q 296 1003 256 1003 q 361 988 335 1003 q 408 955 388 974 q 447 922 428 936 q 492 907 467 907 q 536 926 519 907 q 553 989 553 946 l 622 989 q 605 902 622 938 q 556 848 588 867 q 486 829 525 829 z "},"ŋ":{"ha":718,"x_min":100,"x_max":626,"o":"m 453 -299 q 412 -297 426 -299 q 388 -290 397 -294 l 388 -207 q 410 -212 396 -210 q 440 -214 424 -214 q 505 -195 486 -214 q 524 -137 524 -176 l 524 492 q 492 597 524 563 q 397 631 460 631 q 294 603 338 631 q 226 529 250 576 q 201 422 201 482 l 188 568 q 280 681 218 639 q 422 722 342 722 q 571 667 515 722 q 626 518 626 611 l 626 -143 q 584 -257 626 -215 q 453 -299 542 -299 m 100 0 l 100 708 l 194 708 l 194 558 l 201 558 l 201 0 l 100 0 z "},"o":{"ha":701,"x_min":53,"x_max":649,"o":"m 351 -14 q 192 35 258 -14 q 89 167 125 83 q 53 357 53 251 q 90 546 53 464 q 192 675 126 628 q 351 722 258 722 q 510 675 443 722 q 613 546 576 628 q 649 357 649 464 q 613 167 649 251 q 511 35 578 83 q 351 -14 444 -14 m 351 75 q 455 110 413 75 q 520 210 497 146 q 543 358 543 274 q 492 559 543 485 q 351 633 442 633 q 209 559 260 633 q 158 358 158 485 q 181 210 158 274 q 247 110 204 146 q 351 75 290 75 z "},"ó":{"ha":701,"x_min":53,"x_max":649,"o":"m 351 -14 q 192 35 258 -14 q 89 167 125 83 q 53 357 53 251 q 90 546 53 464 q 192 675 126 628 q 351 722 258 722 q 510 675 443 722 q 613 546 576 628 q 649 357 649 464 q 613 167 649 251 q 511 35 578 83 q 351 -14 444 -14 m 351 75 q 455 110 413 75 q 520 210 497 146 q 543 358 543 274 q 492 559 543 485 q 351 633 442 633 q 209 559 260 633 q 158 358 158 485 q 181 210 158 274 q 247 110 204 146 q 351 75 290 75 m 340 810 l 250 810 l 392 1028 l 536 1028 l 340 810 z "},"ô":{"ha":701,"x_min":53,"x_max":649,"o":"m 351 -14 q 192 35 258 -14 q 89 167 125 83 q 53 357 53 251 q 90 546 53 464 q 192 675 126 628 q 351 722 258 722 q 510 675 443 722 q 613 546 576 628 q 649 357 649 464 q 613 167 649 251 q 511 35 578 83 q 351 -14 444 -14 m 351 75 q 455 110 413 75 q 520 210 497 146 q 543 358 543 274 q 492 559 543 485 q 351 633 442 633 q 209 559 260 633 q 158 358 158 485 q 181 210 158 274 q 247 110 204 146 q 351 75 290 75 m 121 810 l 296 1028 l 401 1028 l 576 810 l 496 810 l 301 1000 l 397 1000 l 203 810 l 121 810 z "},"ö":{"ha":701,"x_min":53,"x_max":649,"o":"m 351 -14 q 192 35 258 -14 q 89 167 125 83 q 53 357 53 251 q 90 546 53 464 q 192 675 126 628 q 351 722 258 722 q 510 675 443 722 q 613 546 576 628 q 649 357 649 464 q 613 167 649 251 q 511 35 578 83 q 351 -14 444 -14 m 351 75 q 455 110 413 75 q 520 210 497 146 q 543 358 543 274 q 492 559 543 485 q 351 633 442 633 q 209 559 260 633 q 158 358 158 485 q 181 210 158 274 q 247 110 204 146 q 351 75 290 75 m 433 875 l 433 1000 l 556 1000 l 556 875 l 433 875 m 144 875 l 144 1000 l 267 1000 l 267 875 l 144 875 z "},"ò":{"ha":701,"x_min":53,"x_max":649,"o":"m 351 -14 q 192 35 258 -14 q 89 167 125 83 q 53 357 53 251 q 90 546 53 464 q 192 675 126 628 q 351 722 258 722 q 510 675 443 722 q 613 546 576 628 q 649 357 649 464 q 613 167 649 251 q 511 35 578 83 q 351 -14 444 -14 m 351 75 q 455 110 413 75 q 520 210 497 146 q 543 358 543 274 q 492 559 543 485 q 351 633 442 633 q 209 559 260 633 q 158 358 158 485 q 181 210 158 274 q 247 110 204 146 q 351 75 290 75 m 361 810 l 165 1028 l 310 1028 l 451 810 l 361 810 z "},"ő":{"ha":701,"x_min":53,"x_max":649,"o":"m 351 -14 q 192 35 258 -14 q 89 167 125 83 q 53 357 53 251 q 90 546 53 464 q 192 675 126 628 q 351 722 258 722 q 510 675 443 722 q 613 546 576 628 q 649 357 649 464 q 613 167 649 251 q 511 35 578 83 q 351 -14 444 -14 m 351 75 q 455 110 413 75 q 520 210 497 146 q 543 358 543 274 q 492 559 543 485 q 351 633 442 633 q 209 559 260 633 q 158 358 158 485 q 181 210 158 274 q 247 110 204 146 q 351 75 290 75 m 246 810 l 167 810 l 247 1028 l 369 1028 l 246 810 m 489 810 l 410 810 l 490 1028 l 613 1028 l 489 810 z "},"ō":{"ha":701,"x_min":53,"x_max":649,"o":"m 351 -14 q 192 35 258 -14 q 89 167 125 83 q 53 357 53 251 q 90 546 53 464 q 192 675 126 628 q 351 722 258 722 q 510 675 443 722 q 613 546 576 628 q 649 357 649 464 q 613 167 649 251 q 511 35 578 83 q 351 -14 444 -14 m 351 75 q 455 110 413 75 q 520 210 497 146 q 543 358 543 274 q 492 559 543 485 q 351 633 442 633 q 209 559 260 633 q 158 358 158 485 q 181 210 158 274 q 247 110 204 146 q 351 75 290 75 m 139 896 l 139 968 l 563 968 l 563 896 l 139 896 z "},"ø":{"ha":701,"x_min":53,"x_max":649,"o":"m 351 -14 q 192 35 258 -14 q 89 167 125 83 q 53 357 53 251 q 90 546 53 464 q 192 675 126 628 q 351 722 258 722 q 510 675 443 722 q 613 546 576 628 q 649 357 649 464 q 613 167 649 251 q 511 35 578 83 q 351 -14 444 -14 m 351 75 q 455 110 413 75 q 520 210 497 146 q 543 358 543 274 q 492 559 543 485 q 351 633 442 633 q 209 559 260 633 q 158 358 158 485 q 181 210 158 274 q 247 110 204 146 q 351 75 290 75 m 117 -8 l 58 36 l 585 717 l 643 672 l 117 -8 z "},"õ":{"ha":701,"x_min":53,"x_max":649,"o":"m 351 -14 q 192 35 258 -14 q 89 167 125 83 q 53 357 53 251 q 90 546 53 464 q 192 675 126 628 q 351 722 258 722 q 510 675 443 722 q 613 546 576 628 q 649 357 649 464 q 613 167 649 251 q 511 35 578 83 q 351 -14 444 -14 m 351 75 q 455 110 413 75 q 520 210 497 146 q 543 358 543 274 q 492 559 543 485 q 351 633 442 633 q 209 559 260 633 q 158 358 158 485 q 181 210 158 274 q 247 110 204 146 q 351 75 290 75 m 447 829 q 383 844 410 829 q 334 877 356 858 q 292 910 313 896 q 247 925 272 925 q 204 906 221 925 q 188 843 188 886 l 118 843 q 135 931 118 896 q 185 985 153 967 q 257 1003 217 1003 q 322 988 296 1003 q 369 955 349 974 q 408 922 389 936 q 453 907 428 907 q 497 926 481 907 q 514 989 514 946 l 583 989 q 566 902 583 938 q 517 848 549 867 q 447 829 486 829 z "},"œ":{"ha":1101,"x_min":53,"x_max":1049,"o":"m 338 -14 q 188 35 251 -14 q 88 167 124 83 q 53 357 53 251 q 89 546 53 464 q 188 675 125 628 q 338 722 251 722 q 483 675 422 722 q 575 546 543 628 q 607 357 607 464 q 576 167 607 251 q 484 35 544 83 q 338 -14 424 -14 m 338 75 q 431 110 392 75 q 493 210 471 146 q 515 358 515 274 q 493 505 515 443 q 431 600 471 567 q 338 633 392 633 q 243 600 283 633 q 181 505 203 567 q 158 358 158 443 q 181 210 158 274 q 243 110 203 146 q 338 75 283 75 m 789 -14 q 651 32 710 -14 q 561 160 593 78 q 529 354 529 243 q 562 549 529 467 q 656 677 594 632 q 800 722 717 722 q 931 681 875 722 q 1018 561 988 640 q 1049 367 1049 482 q 1049 348 1049 357 q 1047 328 1049 339 l 589 328 l 589 414 l 989 414 l 951 360 q 910 566 950 499 q 796 633 869 633 q 705 600 744 633 q 643 505 665 567 q 621 354 621 443 q 642 205 621 268 q 703 108 664 142 q 793 75 743 75 q 885 111 844 75 q 939 211 925 147 l 1036 211 q 947 47 1014 108 q 789 -14 881 -14 z "},"p":{"ha":728,"x_min":100,"x_max":672,"o":"m 397 -14 q 258 31 315 -14 q 182 158 200 75 l 201 165 l 201 -285 l 100 -285 l 100 708 l 194 708 l 194 554 l 183 563 q 265 681 204 639 q 407 722 326 722 q 549 678 489 722 q 640 552 608 633 q 672 360 672 471 q 638 162 672 246 q 542 32 604 78 q 397 -14 481 -14 m 382 78 q 519 149 472 78 q 567 356 567 221 q 519 560 567 490 q 381 631 471 631 q 243 560 292 631 q 194 354 194 489 q 244 149 194 219 q 382 78 293 78 z "},"þ":{"ha":728,"x_min":100,"x_max":672,"o":"m 397 -14 q 258 31 315 -14 q 182 158 200 75 l 201 165 l 201 -285 l 100 -285 l 100 1000 l 201 1000 l 201 554 l 183 563 q 265 681 204 639 q 407 722 326 722 q 549 678 489 722 q 640 552 608 633 q 672 360 672 471 q 638 162 672 246 q 542 32 604 78 q 397 -14 481 -14 m 382 78 q 519 149 472 78 q 567 356 567 221 q 519 560 567 490 q 381 631 471 631 q 243 560 292 631 q 194 354 194 489 q 244 149 194 219 q 382 78 293 78 z "},"q":{"ha":728,"x_min":56,"x_max":628,"o":"m 526 -285 l 526 154 l 544 146 q 465 28 524 69 q 325 -14 406 -14 q 181 30 242 -14 q 88 156 121 74 q 56 349 56 238 q 90 547 56 464 q 185 676 124 631 q 331 722 247 722 q 472 678 415 722 q 546 550 529 633 l 533 543 l 533 708 l 628 708 l 628 -285 l 526 -285 m 347 78 q 485 149 438 78 q 533 354 533 219 q 484 560 533 489 q 346 631 435 631 q 208 560 256 631 q 161 353 161 489 q 209 148 161 218 q 347 78 257 78 z "},"r":{"ha":450,"x_min":100,"x_max":421,"o":"m 100 0 l 100 708 l 194 708 l 194 544 l 201 544 l 201 0 l 100 0 m 201 415 l 182 547 q 262 678 210 635 q 383 722 314 722 q 421 718 408 722 l 421 618 q 405 620 415 619 q 382 621 394 621 q 247 565 293 621 q 201 415 201 510 z "},"ŕ":{"ha":450,"x_min":100,"x_max":443,"o":"m 100 0 l 100 708 l 194 708 l 194 544 l 201 544 l 201 0 l 100 0 m 201 415 l 182 547 q 262 678 210 635 q 383 722 314 722 q 421 718 408 722 l 421 618 q 405 620 415 619 q 382 621 394 621 q 247 565 293 621 q 201 415 201 510 m 247 810 l 157 810 l 299 1028 l 443 1028 l 247 810 z "},"ř":{"ha":450,"x_min":29,"x_max":486,"o":"m 100 0 l 100 708 l 194 708 l 194 544 l 201 544 l 201 0 l 100 0 m 201 415 l 182 547 q 262 678 210 635 q 383 722 314 722 q 421 718 408 722 l 421 618 q 405 620 415 619 q 382 621 394 621 q 247 565 293 621 q 201 415 201 510 m 204 810 l 29 1028 l 111 1028 l 306 838 l 210 838 l 404 1028 l 485 1028 l 310 810 l 204 810 z "},"ŗ":{"ha":450,"x_min":81,"x_max":421,"o":"m 100 0 l 100 708 l 194 708 l 194 544 l 201 544 l 201 0 l 100 0 m 201 415 l 182 547 q 262 678 210 635 q 383 722 314 722 q 421 718 408 722 l 421 618 q 405 620 415 619 q 382 621 394 621 q 247 565 293 621 q 201 415 201 510 m 81 -394 l 81 -340 q 139 -299 119 -326 q 158 -228 158 -271 l 197 -233 l 81 -233 l 81 -99 l 219 -99 l 219 -203 q 185 -324 219 -274 q 81 -394 151 -374 z "},"s":{"ha":551,"x_min":46,"x_max":514,"o":"m 290 -14 q 117 47 179 -14 q 46 215 54 107 l 143 215 q 188 108 149 144 q 293 72 226 72 q 383 98 351 72 q 415 172 415 124 q 396 238 415 207 q 319 292 376 268 l 222 336 q 110 417 149 368 q 72 533 72 467 q 130 671 72 619 q 286 722 188 722 q 440 669 382 722 q 504 515 497 615 l 408 515 q 369 606 401 576 q 282 636 338 636 q 198 611 228 636 q 168 540 168 586 q 190 478 168 507 q 265 424 213 450 l 360 379 q 474 296 433 349 q 514 172 514 243 q 454 36 514 86 q 290 -14 394 -14 z "},"ś":{"ha":551,"x_min":46,"x_max":514,"o":"m 290 -14 q 117 47 179 -14 q 46 215 54 107 l 143 215 q 188 108 149 144 q 293 72 226 72 q 383 98 351 72 q 415 172 415 124 q 396 238 415 207 q 319 292 376 268 l 222 336 q 110 417 149 368 q 72 533 72 467 q 130 671 72 619 q 286 722 188 722 q 440 669 382 722 q 504 515 497 615 l 408 515 q 369 606 401 576 q 282 636 338 636 q 198 611 228 636 q 168 540 168 586 q 190 478 168 507 q 265 424 213 450 l 360 379 q 474 296 433 349 q 514 172 514 243 q 454 36 514 86 q 290 -14 394 -14 m 268 810 l 178 810 l 319 1028 l 464 1028 l 268 810 z "},"š":{"ha":551,"x_min":46,"x_max":514,"o":"m 290 -14 q 117 47 179 -14 q 46 215 54 107 l 143 215 q 188 108 149 144 q 293 72 226 72 q 383 98 351 72 q 415 172 415 124 q 396 238 415 207 q 319 292 376 268 l 222 336 q 110 417 149 368 q 72 533 72 467 q 130 671 72 619 q 286 722 188 722 q 440 669 382 722 q 504 515 497 615 l 408 515 q 369 606 401 576 q 282 636 338 636 q 198 611 228 636 q 168 540 168 586 q 190 478 168 507 q 265 424 213 450 l 360 379 q 474 296 433 349 q 514 172 514 243 q 454 36 514 86 q 290 -14 394 -14 m 225 810 l 50 1028 l 132 1028 l 326 838 l 231 838 l 425 1028 l 506 1028 l 331 810 l 225 810 z "},"ş":{"ha":551,"x_min":46,"x_max":514,"o":"m 290 -14 q 117 47 179 -14 q 46 215 54 107 l 143 215 q 188 108 149 144 q 293 72 226 72 q 383 98 351 72 q 415 172 415 124 q 396 238 415 207 q 319 292 376 268 l 222 336 q 110 417 149 368 q 72 533 72 467 q 130 671 72 619 q 286 722 188 722 q 440 669 382 722 q 504 515 497 615 l 408 515 q 369 606 401 576 q 282 636 338 636 q 198 611 228 636 q 168 540 168 586 q 190 478 168 507 q 265 424 213 450 l 360 379 q 474 296 433 349 q 514 172 514 243 q 454 36 514 86 q 290 -14 394 -14 m 279 -299 q 176 -266 215 -299 q 135 -181 138 -233 l 204 -181 q 230 -221 207 -208 q 283 -233 253 -233 q 333 -220 313 -233 q 353 -185 353 -207 q 326 -140 353 -158 q 233 -118 300 -121 l 263 17 l 333 17 l 314 -67 q 400 -112 375 -79 q 425 -183 425 -144 q 384 -269 425 -239 q 279 -299 343 -299 z "},"ș":{"ha":551,"x_min":46,"x_max":514,"o":"m 290 -14 q 117 47 179 -14 q 46 215 54 107 l 143 215 q 188 108 149 144 q 293 72 226 72 q 383 98 351 72 q 415 172 415 124 q 396 238 415 207 q 319 292 376 268 l 222 336 q 110 417 149 368 q 72 533 72 467 q 130 671 72 619 q 286 722 188 722 q 440 669 382 722 q 504 515 497 615 l 408 515 q 369 606 401 576 q 282 636 338 636 q 198 611 228 636 q 168 540 168 586 q 190 478 168 507 q 265 424 213 450 l 360 379 q 474 296 433 349 q 514 172 514 243 q 454 36 514 86 q 290 -14 394 -14 m 221 -394 l 221 -340 q 279 -299 260 -326 q 299 -228 299 -271 l 338 -233 l 221 -233 l 221 -99 l 360 -99 l 360 -203 q 326 -324 360 -274 q 221 -394 292 -374 z "},"ß":{"ha":733,"x_min":100,"x_max":679,"o":"m 381 -14 q 335 -10 357 -14 q 297 -3 313 -7 l 297 85 q 331 76 313 79 q 372 74 350 74 q 525 126 476 74 q 574 274 574 179 q 522 428 574 369 q 382 486 469 486 l 324 486 l 324 576 l 379 576 q 458 597 424 576 q 511 656 492 617 q 531 749 531 694 q 488 881 531 833 q 371 929 446 929 q 249 879 296 929 q 201 724 201 829 l 201 0 l 100 0 l 100 731 q 173 940 100 867 q 371 1014 246 1014 q 510 983 451 1014 q 603 894 569 951 q 636 761 636 838 q 606 635 636 689 q 526 550 576 581 q 411 519 476 519 l 403 549 q 549 514 488 549 q 645 417 611 479 q 679 271 679 356 q 643 122 679 186 q 540 22 607 57 q 381 -14 474 -14 z "},"t":{"ha":446,"x_min":19,"x_max":419,"o":"m 335 -14 q 187 33 235 -14 q 139 168 139 79 l 139 851 l 242 893 l 242 171 q 267 97 242 121 q 351 74 293 74 q 392 76 375 74 q 419 85 410 79 l 419 -1 q 383 -10 406 -7 q 335 -14 360 -14 m 19 621 l 19 708 l 419 708 l 419 621 l 19 621 z "},"ť":{"ha":446,"x_min":19,"x_max":465,"o":"m 335 -14 q 187 33 235 -14 q 139 168 139 79 l 139 851 l 242 893 l 242 171 q 267 97 242 121 q 351 74 293 74 q 392 76 375 74 q 419 85 410 79 l 419 -1 q 383 -10 406 -7 q 335 -14 360 -14 m 19 621 l 19 708 l 419 708 l 419 621 l 19 621 m 429 768 l 367 768 l 367 1069 l 465 1069 l 429 768 z "},"ț":{"ha":446,"x_min":19,"x_max":419,"o":"m 335 -14 q 187 33 235 -14 q 139 168 139 79 l 139 851 l 242 893 l 242 171 q 267 97 242 121 q 351 74 293 74 q 392 76 375 74 q 419 85 410 79 l 419 -1 q 383 -10 406 -7 q 335 -14 360 -14 m 19 621 l 19 708 l 419 708 l 419 621 l 19 621 m 218 -394 l 218 -340 q 276 -299 257 -326 q 296 -228 296 -271 l 335 -233 l 218 -233 l 218 -99 l 357 -99 l 357 -203 q 323 -324 357 -274 q 218 -394 289 -374 z "},"u":{"ha":707,"x_min":93,"x_max":607,"o":"m 293 -14 q 188 11 233 -14 q 118 83 143 36 q 93 190 93 129 l 93 708 l 196 708 l 196 210 q 227 110 196 143 q 318 78 258 78 q 414 105 372 78 q 480 178 456 132 q 504 283 504 225 l 519 136 q 429 26 489 67 q 293 -14 369 -14 m 514 0 l 514 146 l 504 146 l 504 708 l 607 708 l 607 0 l 514 0 z "},"ú":{"ha":707,"x_min":93,"x_max":607,"o":"m 293 -14 q 188 11 233 -14 q 118 83 143 36 q 93 190 93 129 l 93 708 l 196 708 l 196 210 q 227 110 196 143 q 318 78 258 78 q 414 105 372 78 q 480 178 456 132 q 504 283 504 225 l 519 136 q 429 26 489 67 q 293 -14 369 -14 m 514 0 l 514 146 l 504 146 l 504 708 l 607 708 l 607 0 l 514 0 m 343 810 l 253 810 l 394 1028 l 539 1028 l 343 810 z "},"ŭ":{"ha":707,"x_min":93,"x_max":607,"o":"m 293 -14 q 188 11 233 -14 q 118 83 143 36 q 93 190 93 129 l 93 708 l 196 708 l 196 210 q 227 110 196 143 q 318 78 258 78 q 414 105 372 78 q 480 178 456 132 q 504 283 504 225 l 519 136 q 429 26 489 67 q 293 -14 369 -14 m 514 0 l 514 146 l 504 146 l 504 708 l 607 708 l 607 0 l 514 0 m 353 804 q 250 830 297 804 q 175 906 203 856 q 147 1028 147 956 l 221 1028 q 256 925 221 961 q 353 889 292 889 q 450 925 415 889 q 485 1028 485 961 l 560 1028 q 531 906 560 956 q 457 830 503 856 q 353 804 411 804 z "},"û":{"ha":707,"x_min":93,"x_max":607,"o":"m 293 -14 q 188 11 233 -14 q 118 83 143 36 q 93 190 93 129 l 93 708 l 196 708 l 196 210 q 227 110 196 143 q 318 78 258 78 q 414 105 372 78 q 480 178 456 132 q 504 283 504 225 l 519 136 q 429 26 489 67 q 293 -14 369 -14 m 514 0 l 514 146 l 504 146 l 504 708 l 607 708 l 607 0 l 514 0 m 124 810 l 299 1028 l 404 1028 l 579 810 l 499 810 l 304 1000 l 400 1000 l 206 810 l 124 810 z "},"ü":{"ha":707,"x_min":93,"x_max":607,"o":"m 293 -14 q 188 11 233 -14 q 118 83 143 36 q 93 190 93 129 l 93 708 l 196 708 l 196 210 q 227 110 196 143 q 318 78 258 78 q 414 105 372 78 q 480 178 456 132 q 504 283 504 225 l 519 136 q 429 26 489 67 q 293 -14 369 -14 m 514 0 l 514 146 l 504 146 l 504 708 l 607 708 l 607 0 l 514 0 m 436 875 l 436 1000 l 558 1000 l 558 875 l 436 875 m 147 875 l 147 1000 l 269 1000 l 269 875 l 147 875 z "},"ù":{"ha":707,"x_min":93,"x_max":607,"o":"m 293 -14 q 188 11 233 -14 q 118 83 143 36 q 93 190 93 129 l 93 708 l 196 708 l 196 210 q 227 110 196 143 q 318 78 258 78 q 414 105 372 78 q 480 178 456 132 q 504 283 504 225 l 519 136 q 429 26 489 67 q 293 -14 369 -14 m 514 0 l 514 146 l 504 146 l 504 708 l 607 708 l 607 0 l 514 0 m 364 810 l 168 1028 l 313 1028 l 454 810 l 364 810 z "},"ű":{"ha":707,"x_min":93,"x_max":615,"o":"m 293 -14 q 188 11 233 -14 q 118 83 143 36 q 93 190 93 129 l 93 708 l 196 708 l 196 210 q 227 110 196 143 q 318 78 258 78 q 414 105 372 78 q 480 178 456 132 q 504 283 504 225 l 519 136 q 429 26 489 67 q 293 -14 369 -14 m 514 0 l 514 146 l 504 146 l 504 708 l 607 708 l 607 0 l 514 0 m 249 810 l 169 810 l 250 1028 l 372 1028 l 249 810 m 492 810 l 413 810 l 493 1028 l 615 1028 l 492 810 z "},"ū":{"ha":707,"x_min":93,"x_max":607,"o":"m 293 -14 q 188 11 233 -14 q 118 83 143 36 q 93 190 93 129 l 93 708 l 196 708 l 196 210 q 227 110 196 143 q 318 78 258 78 q 414 105 372 78 q 480 178 456 132 q 504 283 504 225 l 519 136 q 429 26 489 67 q 293 -14 369 -14 m 514 0 l 514 146 l 504 146 l 504 708 l 607 708 l 607 0 l 514 0 m 142 896 l 142 968 l 565 968 l 565 896 l 142 896 z "},"ų":{"ha":707,"x_min":93,"x_max":610,"o":"m 293 -14 q 188 11 233 -14 q 118 83 143 36 q 93 190 93 129 l 93 708 l 196 708 l 196 210 q 227 110 196 143 q 318 78 258 78 q 414 105 372 78 q 480 178 456 132 q 504 283 504 225 l 519 136 q 429 26 489 67 q 293 -14 369 -14 m 514 0 l 514 146 l 504 146 l 504 708 l 607 708 l 607 0 l 514 0 m 511 -300 q 429 -270 458 -300 q 400 -193 400 -240 q 450 -75 400 -132 q 576 24 500 -18 l 607 0 q 510 -89 546 -44 q 474 -183 474 -133 q 487 -222 474 -208 q 519 -235 500 -235 q 569 -212 547 -235 l 610 -262 q 567 -290 590 -281 q 511 -300 543 -300 z "},"ů":{"ha":707,"x_min":93,"x_max":607,"o":"m 293 -14 q 188 11 233 -14 q 118 83 143 36 q 93 190 93 129 l 93 708 l 196 708 l 196 210 q 227 110 196 143 q 318 78 258 78 q 414 105 372 78 q 480 178 456 132 q 504 283 504 225 l 519 136 q 429 26 489 67 q 293 -14 369 -14 m 514 0 l 514 146 l 504 146 l 504 708 l 607 708 l 607 0 l 514 0 m 354 779 q 247 823 290 779 q 204 929 204 867 q 247 1034 204 990 q 354 1078 290 1078 q 460 1034 418 1078 q 503 929 503 990 q 460 823 503 867 q 354 779 418 779 m 354 842 q 415 867 392 842 q 438 929 438 893 q 414 990 438 965 q 354 1015 390 1015 q 293 990 317 1015 q 269 929 269 965 q 293 867 269 893 q 354 842 317 842 z "},"v":{"ha":629,"x_min":26,"x_max":603,"o":"m 276 0 l 26 708 l 135 708 l 339 90 l 296 90 l 499 708 l 603 708 l 353 0 l 276 0 z "},"w":{"ha":949,"x_min":40,"x_max":908,"o":"m 235 0 l 40 708 l 143 708 l 289 117 l 265 117 l 440 708 l 514 708 l 690 117 l 667 117 l 810 708 l 908 708 l 713 0 l 636 0 l 463 579 l 488 579 l 313 0 l 235 0 z "},"ẃ":{"ha":949,"x_min":40,"x_max":908,"o":"m 235 0 l 40 708 l 143 708 l 289 117 l 265 117 l 440 708 l 514 708 l 690 117 l 667 117 l 810 708 l 908 708 l 713 0 l 636 0 l 463 579 l 488 579 l 313 0 l 235 0 m 464 810 l 374 810 l 515 1028 l 660 1028 l 464 810 z "},"ŵ":{"ha":949,"x_min":40,"x_max":908,"o":"m 235 0 l 40 708 l 143 708 l 289 117 l 265 117 l 440 708 l 514 708 l 690 117 l 667 117 l 810 708 l 908 708 l 713 0 l 636 0 l 463 579 l 488 579 l 313 0 l 235 0 m 246 810 l 421 1028 l 526 1028 l 701 810 l 621 810 l 426 1000 l 522 1000 l 328 810 l 246 810 z "},"ẅ":{"ha":949,"x_min":40,"x_max":908,"o":"m 235 0 l 40 708 l 143 708 l 289 117 l 265 117 l 440 708 l 514 708 l 690 117 l 667 117 l 810 708 l 908 708 l 713 0 l 636 0 l 463 579 l 488 579 l 313 0 l 235 0 m 557 875 l 557 1000 l 679 1000 l 679 875 l 557 875 m 268 875 l 268 1000 l 390 1000 l 390 875 l 268 875 z "},"ẁ":{"ha":949,"x_min":40,"x_max":908,"o":"m 235 0 l 40 708 l 143 708 l 289 117 l 265 117 l 440 708 l 514 708 l 690 117 l 667 117 l 810 708 l 908 708 l 713 0 l 636 0 l 463 579 l 488 579 l 313 0 l 235 0 m 486 810 l 290 1028 l 435 1028 l 576 810 l 486 810 z "},"x":{"ha":646,"x_min":39,"x_max":607,"o":"m 494 0 l 297 328 l 61 708 l 175 708 l 356 406 l 607 0 l 494 0 m 304 397 l 490 708 l 600 708 l 357 321 l 304 397 m 344 319 l 147 0 l 39 0 l 294 399 l 344 319 z "},"y":{"ha":629,"x_min":26,"x_max":603,"o":"m 147 -285 l 283 88 l 301 124 l 499 708 l 603 708 l 254 -285 l 147 -285 m 293 0 l 26 708 l 138 708 l 360 90 l 293 0 z "},"ý":{"ha":629,"x_min":26,"x_max":603,"o":"m 147 -285 l 283 88 l 301 124 l 499 708 l 603 708 l 254 -285 l 147 -285 m 293 0 l 26 708 l 138 708 l 360 90 l 293 0 m 304 810 l 214 810 l 356 1028 l 500 1028 l 304 810 z "},"ŷ":{"ha":629,"x_min":26,"x_max":603,"o":"m 147 -285 l 283 88 l 301 124 l 499 708 l 603 708 l 254 -285 l 147 -285 m 293 0 l 26 708 l 138 708 l 360 90 l 293 0 m 85 810 l 260 1028 l 365 1028 l 540 810 l 460 810 l 265 1000 l 361 1000 l 167 810 l 85 810 z "},"ÿ":{"ha":629,"x_min":26,"x_max":603,"o":"m 147 -285 l 283 88 l 301 124 l 499 708 l 603 708 l 254 -285 l 147 -285 m 293 0 l 26 708 l 138 708 l 360 90 l 293 0 m 397 875 l 397 1000 l 519 1000 l 519 875 l 397 875 m 108 875 l 108 1000 l 231 1000 l 231 875 l 108 875 z "},"ỳ":{"ha":629,"x_min":26,"x_max":603,"o":"m 147 -285 l 283 88 l 301 124 l 499 708 l 603 708 l 254 -285 l 147 -285 m 293 0 l 26 708 l 138 708 l 360 90 l 293 0 m 326 810 l 131 1028 l 275 1028 l 417 810 l 326 810 z "},"z":{"ha":581,"x_min":58,"x_max":529,"o":"m 58 0 l 58 74 l 424 665 l 456 621 l 72 621 l 72 708 l 519 708 l 519 635 l 154 43 l 122 88 l 529 88 l 529 0 l 58 0 z "},"ź":{"ha":581,"x_min":58,"x_max":529,"o":"m 58 0 l 58 74 l 424 665 l 456 621 l 72 621 l 72 708 l 519 708 l 519 635 l 154 43 l 122 88 l 529 88 l 529 0 l 58 0 m 279 810 l 189 810 l 331 1028 l 475 1028 l 279 810 z "},"ž":{"ha":581,"x_min":58,"x_max":529,"o":"m 58 0 l 58 74 l 424 665 l 456 621 l 72 621 l 72 708 l 519 708 l 519 635 l 154 43 l 122 88 l 529 88 l 529 0 l 58 0 m 238 810 l 63 1028 l 144 1028 l 339 838 l 243 838 l 438 1028 l 518 1028 l 343 810 l 238 810 z "},"ż":{"ha":581,"x_min":58,"x_max":529,"o":"m 58 0 l 58 74 l 424 665 l 456 621 l 72 621 l 72 708 l 519 708 l 519 635 l 154 43 l 122 88 l 529 88 l 529 0 l 58 0 m 229 875 l 229 1000 l 351 1000 l 351 875 l 229 875 z "},"ª":{"ha":451,"x_min":60,"x_max":372,"o":"m 296 581 q 290 615 292 596 q 288 657 288 635 l 283 657 l 283 879 q 267 930 283 913 q 219 947 251 947 q 168 929 188 947 q 147 881 149 911 l 71 881 q 114 977 74 940 q 224 1014 154 1014 q 328 978 292 1014 q 364 876 364 943 l 364 657 q 366 617 364 636 q 372 581 368 597 l 296 581 m 174 572 q 91 603 122 572 q 60 685 60 633 q 90 768 60 735 q 182 819 119 801 l 300 857 l 300 793 l 203 763 q 157 738 174 754 q 140 694 140 722 q 156 653 140 668 q 199 639 171 639 q 260 662 236 639 q 283 718 283 685 l 293 656 q 247 592 279 613 q 174 572 214 572 z "},"º":{"ha":499,"x_min":63,"x_max":436,"o":"m 249 572 q 150 601 192 572 q 85 680 108 629 q 63 794 63 731 q 113 953 63 892 q 249 1014 164 1014 q 385 953 335 1014 q 436 794 436 893 q 385 635 436 697 q 249 572 335 572 m 249 642 q 326 683 299 642 q 353 796 353 725 q 325 905 353 865 q 249 944 297 944 q 174 905 201 944 q 146 796 146 865 q 174 683 146 725 q 249 642 201 642 z "}," ":{"ha":242,"x_min":0,"x_max":0,"o":""}," ":{"ha":242,"x_min":0,"x_max":0,"o":""},".":{"ha":324,"x_min":94,"x_max":229,"o":"m 94 0 l 94 135 l 229 135 l 229 0 l 94 0 z "},",":{"ha":324,"x_min":96,"x_max":229,"o":"m 96 -190 l 96 -136 q 151 -90 133 -121 q 168 4 168 -58 l 210 0 l 96 0 l 96 133 l 229 133 l 229 29 q 197 -112 229 -56 q 96 -190 165 -168 z "},":":{"ha":324,"x_min":94,"x_max":229,"o":"m 94 0 l 94 135 l 229 135 l 229 0 l 94 0 m 94 528 l 94 663 l 229 663 l 229 528 l 94 528 z "},";":{"ha":324,"x_min":94,"x_max":229,"o":"m 96 -190 l 96 -136 q 151 -90 133 -121 q 168 4 168 -58 l 210 0 l 96 0 l 96 133 l 229 133 l 229 29 q 197 -112 229 -56 q 96 -190 165 -168 m 94 528 l 94 663 l 229 663 l 229 528 l 94 528 z "},"…":{"ha":822,"x_min":94,"x_max":726,"o":"m 94 0 l 94 135 l 229 135 l 229 0 l 94 0 m 343 0 l 343 135 l 478 135 l 478 0 l 343 0 m 592 0 l 592 135 l 726 135 l 726 0 l 592 0 z "},"!":{"ha":349,"x_min":107,"x_max":242,"o":"m 135 285 l 118 1028 l 231 1028 l 214 285 l 135 285 m 107 0 l 107 135 l 242 135 l 242 0 l 107 0 z "},"¡":{"ha":349,"x_min":107,"x_max":242,"o":"m 118 -285 l 135 425 l 214 425 l 231 -285 l 118 -285 m 242 708 l 242 574 l 107 574 l 107 708 l 242 708 z "},"?":{"ha":663,"x_min":57,"x_max":621,"o":"m 292 283 q 308 423 292 365 q 349 520 324 481 q 404 590 375 560 q 459 649 433 621 q 501 713 485 678 q 517 796 517 747 q 474 907 517 865 q 353 949 432 949 q 216 897 265 949 q 160 751 167 844 l 57 751 q 99 904 61 839 q 204 1006 138 969 q 358 1042 271 1042 q 498 1012 439 1042 q 589 927 557 982 q 621 799 621 872 q 604 699 621 740 q 560 624 588 657 q 503 562 533 592 q 447 495 474 532 q 403 408 419 458 q 386 283 386 357 l 292 283 m 271 0 l 271 135 l 406 135 l 406 0 l 271 0 z "},"¿":{"ha":663,"x_min":42,"x_max":606,"o":"m 304 -299 q 167 -270 226 -299 q 75 -189 108 -242 q 42 -62 42 -136 q 59 38 42 -3 q 103 109 76 78 q 160 169 131 140 q 217 231 190 197 q 262 312 244 265 q 279 425 279 358 l 372 425 q 356 296 372 349 q 314 207 340 243 q 259 143 288 171 q 204 88 231 115 q 162 26 178 60 q 146 -58 146 -8 q 190 -166 146 -126 q 310 -206 235 -206 q 444 -158 393 -206 q 504 -22 496 -110 l 606 -22 q 563 -168 601 -106 q 457 -265 524 -231 q 304 -299 390 -299 m 392 710 l 392 575 l 257 575 l 257 710 l 392 710 z "},"·":{"ha":135,"x_min":0,"x_max":135,"o":"m 0 460 l 0 594 l 135 594 l 135 460 l 0 460 z "},"•":{"ha":390,"x_min":94,"x_max":296,"o":"m 94 413 l 94 615 l 296 615 l 296 413 l 94 413 z "},"*":{"ha":540,"x_min":63,"x_max":479,"o":"m 224 610 l 251 785 l 110 674 l 63 754 l 229 818 l 63 883 l 110 964 l 251 853 l 224 1028 l 318 1028 l 290 853 l 432 964 l 479 883 l 311 818 l 479 754 l 432 674 l 290 785 l 318 610 l 224 610 z "},"#":{"ha":810,"x_min":44,"x_max":765,"o":"m 151 0 l 290 1000 l 381 1000 l 242 0 l 151 0 m 431 0 l 569 1000 l 658 1000 l 519 0 l 431 0 m 79 689 l 765 689 l 765 601 l 79 601 l 79 689 m 44 413 l 731 413 l 731 325 l 44 325 l 44 413 z "},"/":{"ha":486,"x_min":72,"x_max":414,"o":"m 72 -83 l 324 1042 l 414 1042 l 163 -83 l 72 -83 z "},"\\":{"ha":486,"x_min":72,"x_max":414,"o":"m 72 1042 l 163 1042 l 414 -83 l 324 -83 l 72 1042 z "},"-":{"ha":600,"x_min":100,"x_max":501,"o":"m 100 328 l 100 428 l 501 428 l 501 328 l 100 328 z "},"–":{"ha":711,"x_min":100,"x_max":613,"o":"m 100 333 l 100 422 l 613 422 l 613 333 l 100 333 z "},"—":{"ha":1056,"x_min":100,"x_max":957,"o":"m 100 333 l 100 422 l 957 422 l 957 333 l 100 333 z "},"_":{"ha":513,"x_min":0,"x_max":513,"o":"m 0 -158 l 0 -69 l 513 -69 l 513 -158 l 0 -158 z "},"(":{"ha":514,"x_min":104,"x_max":451,"o":"m 357 -153 q 166 133 228 -18 q 104 444 104 285 q 167 753 104 601 q 357 1042 229 906 l 451 1042 q 263 756 325 906 q 200 444 200 607 q 263 131 200 281 q 451 -153 326 -18 l 357 -153 z "},")":{"ha":514,"x_min":63,"x_max":410,"o":"m 157 1044 q 348 758 286 910 q 410 447 410 607 q 347 138 410 290 q 157 -150 285 -14 l 63 -150 q 251 135 189 -14 q 314 447 314 285 q 251 760 314 611 q 63 1044 188 910 l 157 1044 z "},"{":{"ha":514,"x_min":49,"x_max":438,"o":"m 315 -150 q 213 -126 253 -150 q 156 -58 172 -101 q 150 38 140 -15 l 194 283 q 188 379 207 353 q 108 406 168 406 l 49 406 l 49 486 l 108 486 q 187 513 167 486 q 194 608 207 539 l 150 854 q 156 951 140 908 q 213 1017 172 993 q 315 1042 253 1042 l 438 1042 l 438 960 l 326 960 q 259 934 281 960 q 247 858 238 908 l 288 640 q 283 512 303 557 q 210 446 263 467 q 283 379 263 425 q 288 251 303 333 l 247 33 q 259 -42 238 -15 q 326 -68 281 -68 l 438 -68 l 438 -150 l 315 -150 z "},"}":{"ha":514,"x_min":76,"x_max":465,"o":"m 197 1042 q 301 1017 261 1042 q 358 951 342 993 q 363 854 374 908 l 319 608 q 326 513 307 539 q 406 486 346 486 l 465 486 l 465 406 l 406 406 q 327 379 347 406 q 319 283 307 353 l 363 38 q 358 -58 374 -15 q 301 -126 342 -101 q 197 -150 261 -150 l 76 -150 l 76 -68 l 186 -68 q 255 -42 233 -68 q 267 33 276 -15 l 226 251 q 231 380 211 335 q 304 446 251 425 q 231 513 251 467 q 226 640 211 558 l 267 858 q 255 934 276 908 q 186 960 233 960 l 76 960 l 76 1042 l 197 1042 z "},"[":{"ha":514,"x_min":118,"x_max":438,"o":"m 118 -150 l 118 1042 l 438 1042 l 438 960 l 214 960 l 214 -68 l 438 -68 l 438 -150 l 118 -150 z "},"]":{"ha":514,"x_min":76,"x_max":396,"o":"m 396 1042 l 396 -150 l 76 -150 l 76 -68 l 300 -68 l 300 960 l 76 960 l 76 1042 l 396 1042 z "},"‚":{"ha":315,"x_min":86,"x_max":219,"o":"m 86 -190 l 86 -136 q 141 -90 124 -121 q 158 4 158 -58 l 200 0 l 86 0 l 86 133 l 219 133 l 219 29 q 188 -112 219 -56 q 86 -190 156 -168 z "},"„":{"ha":524,"x_min":86,"x_max":428,"o":"m 294 -190 l 294 -136 q 349 -90 332 -121 q 367 4 367 -58 l 408 0 l 294 0 l 294 133 l 428 133 l 428 29 q 396 -112 428 -56 q 294 -190 364 -168 m 86 -190 l 86 -136 q 141 -90 124 -121 q 158 4 158 -58 l 200 0 l 86 0 l 86 133 l 219 133 l 219 29 q 188 -112 219 -56 q 86 -190 156 -168 z "},"“":{"ha":535,"x_min":96,"x_max":449,"o":"m 307 714 l 307 815 q 342 958 307 900 q 449 1028 378 1015 l 449 974 q 388 935 408 968 q 368 840 368 903 l 326 849 l 442 849 l 442 714 l 307 714 m 96 714 l 96 815 q 131 958 96 900 q 238 1028 167 1015 l 238 974 q 177 935 197 968 q 157 840 157 903 l 115 849 l 231 849 l 231 714 l 96 714 z "},"”":{"ha":535,"x_min":86,"x_max":439,"o":"m 297 718 l 297 772 q 358 811 338 779 q 379 907 379 843 l 421 897 l 304 897 l 304 1032 l 439 1032 l 439 932 q 403 788 439 846 q 297 718 368 731 m 86 718 l 86 772 q 147 811 126 779 q 168 907 168 843 l 210 897 l 93 897 l 93 1032 l 228 1032 l 228 932 q 192 788 228 846 q 86 718 157 731 z "},"‘":{"ha":324,"x_min":96,"x_max":238,"o":"m 96 714 l 96 815 q 131 958 96 900 q 238 1028 167 1015 l 238 974 q 177 935 197 968 q 157 840 157 903 l 115 849 l 231 849 l 231 714 l 96 714 z "},"’":{"ha":324,"x_min":86,"x_max":228,"o":"m 86 718 l 86 772 q 147 811 126 779 q 168 907 168 843 l 210 897 l 93 897 l 93 1032 l 228 1032 l 228 932 q 192 788 228 846 q 86 718 157 731 z "},"«":{"ha":628,"x_min":69,"x_max":546,"o":"m 231 94 l 69 349 l 231 603 l 331 603 l 174 349 l 331 94 l 231 94 m 446 94 l 285 349 l 446 603 l 546 603 l 389 349 l 546 94 l 446 94 z "},"»":{"ha":628,"x_min":83,"x_max":560,"o":"m 397 603 l 560 349 l 397 94 l 299 94 l 454 349 l 299 603 l 397 603 m 182 603 l 344 349 l 182 94 l 83 94 l 239 349 l 83 603 l 182 603 z "},"‹":{"ha":414,"x_min":69,"x_max":331,"o":"m 231 94 l 69 349 l 231 603 l 331 603 l 174 349 l 331 94 l 231 94 z "},"›":{"ha":414,"x_min":83,"x_max":344,"o":"m 182 94 l 83 94 l 239 349 l 83 603 l 182 603 l 344 349 l 182 94 z "},"\"":{"ha":507,"x_min":83,"x_max":424,"o":"m 128 690 l 100 843 q 88 918 92 888 q 83 969 83 949 q 92 1008 83 992 q 115 1033 100 1024 q 149 1042 129 1042 q 183 1033 168 1042 q 206 1008 197 1024 q 214 969 214 992 q 209 918 214 949 q 196 843 204 888 l 168 690 l 128 690 m 338 690 l 310 843 q 297 918 301 888 q 293 969 293 949 q 301 1008 293 992 q 324 1033 310 1024 q 358 1042 339 1042 q 392 1033 378 1042 q 415 1008 407 1024 q 424 969 424 992 q 419 918 424 949 q 406 843 414 888 l 378 690 l 338 690 z "},"'":{"ha":296,"x_min":83,"x_max":214,"o":"m 128 690 l 100 843 q 88 918 92 888 q 83 969 83 949 q 92 1008 83 992 q 115 1033 100 1024 q 149 1042 129 1042 q 183 1033 168 1042 q 206 1008 197 1024 q 214 969 214 992 q 209 918 214 949 q 196 843 204 888 l 168 690 l 128 690 z "},"@":{"ha":1106,"x_min":63,"x_max":1043,"o":"m 557 -12 q 297 45 408 -12 q 124 208 186 103 q 63 453 63 313 q 103 673 63 571 q 219 851 144 775 q 395 971 294 928 q 614 1014 496 1014 q 838 963 742 1014 q 989 819 935 911 q 1043 608 1043 728 q 1020 456 1043 528 q 958 330 997 385 q 867 243 918 275 q 758 211 815 211 q 691 229 719 211 q 651 283 663 247 q 649 368 639 318 l 663 339 q 579 244 628 276 q 474 211 531 211 q 344 268 393 211 q 296 422 296 325 q 318 563 296 496 q 378 681 340 629 q 466 763 417 733 q 569 793 515 793 q 682 748 642 793 q 718 633 722 703 l 701 631 l 739 774 l 833 774 l 733 393 q 729 312 719 339 q 772 285 739 285 q 842 311 808 285 q 902 383 875 338 q 945 484 929 428 q 961 601 961 540 q 917 778 961 703 q 794 897 874 854 q 611 939 715 939 q 426 901 511 939 q 278 798 340 864 q 180 644 215 732 q 144 456 144 557 q 194 249 144 338 q 337 112 244 161 q 557 63 429 63 q 703 81 631 63 q 833 132 775 100 l 865 68 q 728 10 810 32 q 557 -12 647 -12 m 499 290 q 567 315 535 290 q 626 379 600 339 q 668 470 653 419 q 683 574 683 521 q 654 676 683 638 q 576 714 625 714 q 508 691 540 714 q 449 628 475 668 q 408 537 422 588 q 393 432 393 486 q 422 327 393 364 q 499 290 450 290 z "},"&":{"ha":901,"x_min":56,"x_max":876,"o":"m 744 0 l 268 572 q 207 656 231 618 q 173 728 183 693 q 163 800 163 764 q 193 912 163 864 q 277 987 224 960 q 401 1014 331 1014 q 519 989 467 1014 q 601 918 571 964 q 631 810 631 872 q 570 663 631 731 q 383 542 510 596 l 336 610 q 483 695 435 647 q 532 801 532 743 q 494 892 532 858 q 397 925 456 925 q 303 892 340 925 q 267 801 267 860 q 276 746 267 774 q 308 685 286 718 q 368 607 329 651 l 876 0 l 744 0 m 376 -12 q 208 22 281 -12 q 96 122 136 57 q 56 275 56 186 q 126 466 56 382 q 317 596 196 550 l 368 531 q 254 469 300 504 q 185 390 208 435 q 161 288 161 346 q 222 131 161 183 q 383 79 283 79 q 513 106 454 79 q 614 188 571 132 q 680 331 657 243 q 703 539 703 418 l 806 539 q 781 325 806 417 q 714 169 757 233 q 615 64 671 104 q 499 6 560 24 q 376 -12 438 -12 z "},"¶":{"ha":836,"x_min":49,"x_max":728,"o":"m 419 -181 l 419 453 l 321 453 q 180 487 242 453 q 83 582 118 521 q 49 722 49 643 q 83 867 49 804 q 181 965 118 929 q 325 1000 243 1000 l 728 1000 l 728 -181 l 644 -181 l 644 918 l 504 918 l 504 -181 l 419 -181 z "},"§":{"ha":574,"x_min":51,"x_max":524,"o":"m 301 267 l 303 339 q 394 367 361 339 q 426 444 426 396 q 405 515 426 483 q 329 571 383 547 l 221 618 q 119 698 156 647 q 82 821 82 749 q 140 960 82 907 q 296 1014 197 1014 q 449 960 392 1014 q 515 807 507 907 l 418 807 q 381 898 413 868 q 292 928 349 928 q 208 901 238 928 q 179 828 179 874 q 201 758 179 789 q 275 703 222 728 l 371 657 q 483 574 443 626 q 524 447 524 522 q 465 314 524 361 q 301 267 406 267 m 279 -74 q 125 -20 182 -74 q 60 133 68 33 l 156 133 q 194 43 163 74 q 283 13 226 13 q 367 39 338 13 q 396 111 396 65 q 375 182 396 151 q 300 238 354 213 l 204 282 q 92 366 132 314 q 51 492 51 418 q 110 624 51 574 q 274 674 169 674 l 272 601 q 181 573 214 601 q 149 496 149 544 q 171 426 149 457 q 246 369 193 394 l 354 322 q 456 242 419 293 q 493 118 493 192 q 435 -20 493 33 q 279 -74 376 -74 z "},"©":{"ha":1167,"x_min":63,"x_max":1104,"o":"m 583 -21 q 381 19 475 -21 q 215 131 286 60 q 103 297 143 203 q 63 500 63 392 q 103 703 63 608 q 215 869 143 797 q 381 981 286 940 q 583 1021 475 1021 q 786 981 692 1021 q 952 869 881 940 q 1064 703 1024 797 q 1104 500 1104 608 q 1064 297 1104 392 q 952 131 1024 203 q 786 19 881 60 q 583 -21 692 -21 m 583 32 q 764 69 679 32 q 913 170 849 106 q 1013 319 976 235 q 1049 500 1049 404 q 1013 681 1049 596 q 913 830 976 765 q 764 931 849 894 q 583 968 679 968 q 403 931 488 968 q 254 830 318 894 q 154 681 190 765 q 118 500 118 596 q 154 319 118 404 q 254 170 190 235 q 403 69 318 106 q 583 32 488 32 m 586 194 q 440 234 504 194 q 340 342 376 274 q 304 500 304 411 q 340 658 304 589 q 440 766 376 726 q 585 806 504 806 q 753 745 685 806 q 836 586 822 685 l 768 586 q 710 702 758 660 q 586 744 661 744 q 432 676 490 744 q 374 500 374 608 q 432 323 374 390 q 585 256 490 256 q 711 299 663 256 q 769 414 760 342 l 838 414 q 756 254 824 314 q 586 194 688 194 z "},"®":{"ha":1167,"x_min":63,"x_max":1104,"o":"m 583 -21 q 381 19 475 -21 q 215 131 286 60 q 103 297 143 203 q 63 500 63 392 q 103 703 63 608 q 215 869 143 797 q 381 981 286 940 q 583 1021 475 1021 q 786 981 692 1021 q 952 869 881 940 q 1064 703 1024 797 q 1104 500 1104 608 q 1064 297 1104 392 q 952 131 1024 203 q 786 19 881 60 q 583 -21 692 -21 m 583 32 q 764 69 679 32 q 913 170 849 106 q 1013 319 976 235 q 1049 500 1049 404 q 1013 681 1049 596 q 913 830 976 765 q 764 931 849 894 q 583 968 679 968 q 403 931 488 968 q 254 830 318 894 q 154 681 190 765 q 118 500 118 596 q 154 319 118 404 q 254 170 190 235 q 403 69 318 106 q 583 32 488 32 m 389 201 l 389 799 l 610 799 q 757 755 703 799 q 811 636 811 711 q 651 479 811 514 l 660 501 q 763 469 725 504 q 801 371 801 433 l 801 272 q 803 240 801 257 q 808 201 804 222 l 739 201 q 735 232 736 214 q 733 272 733 250 l 733 357 q 702 440 733 411 q 614 468 671 468 l 439 468 l 439 524 l 607 524 q 708 553 672 524 q 743 633 743 582 q 708 712 743 685 q 607 739 672 739 l 457 739 l 457 201 l 389 201 z "},"™":{"ha":1008,"x_min":76,"x_max":932,"o":"m 207 500 l 207 983 l 290 983 l 290 500 l 207 500 m 76 931 l 76 1000 l 421 1000 l 421 931 l 76 931 m 469 500 l 469 1000 l 589 1000 l 724 525 l 676 525 l 810 1000 l 932 1000 l 932 500 l 850 500 l 850 950 l 863 950 l 738 500 l 658 500 l 533 949 l 544 949 l 544 500 l 469 500 z "},"°":{"ha":536,"x_min":69,"x_max":467,"o":"m 269 624 q 168 651 214 624 q 96 724 122 678 q 69 824 69 769 q 96 923 69 878 q 168 994 122 968 q 269 1021 214 1021 q 371 994 326 1021 q 441 923 415 968 q 467 824 467 878 q 441 724 467 769 q 371 651 415 678 q 269 624 326 624 m 269 683 q 366 724 326 683 q 406 824 406 765 q 366 921 406 881 q 269 961 326 961 q 170 921 210 961 q 131 824 131 881 q 170 724 131 765 q 269 683 210 683 z "},"|":{"ha":306,"x_min":108,"x_max":199,"o":"m 108 -181 l 108 1097 l 199 1097 l 199 -181 l 108 -181 z "},"¢":{"ha":633,"x_min":53,"x_max":586,"o":"m 289 669 l 289 856 l 372 856 l 372 669 l 289 669 m 372 28 l 372 -151 l 289 -151 l 289 28 l 372 28 m 332 -14 q 185 32 249 -14 q 88 161 122 78 q 53 356 53 244 q 88 550 53 468 q 188 677 124 632 q 336 722 251 722 q 461 690 407 722 q 547 599 515 658 q 585 461 579 540 l 488 461 q 443 588 482 542 q 338 633 404 633 q 240 601 281 633 q 179 507 200 569 q 158 356 158 444 q 179 205 158 268 q 240 108 200 142 q 335 75 279 75 q 441 123 400 75 q 489 247 482 171 l 586 247 q 546 110 579 169 q 458 19 513 51 q 332 -14 403 -14 z "},"$":{"ha":697,"x_min":51,"x_max":656,"o":"m 319 967 l 319 1153 l 404 1153 l 404 967 l 319 967 m 404 28 l 404 -151 l 319 -151 l 319 28 l 404 28 m 378 -12 q 145 75 231 -12 q 51 319 60 163 l 153 319 q 219 142 160 204 q 381 81 278 81 q 508 120 465 81 q 551 238 551 160 q 522 344 551 301 q 426 421 492 388 l 276 506 q 135 620 182 554 q 88 771 88 686 q 121 899 88 844 q 216 985 154 954 q 358 1015 278 1015 q 563 937 489 1015 q 644 714 638 858 l 543 714 q 490 872 535 821 q 356 922 444 922 q 233 885 276 922 q 190 778 190 847 q 222 678 190 719 q 319 600 253 636 l 474 514 q 610 397 564 468 q 656 236 656 326 q 582 53 656 119 q 378 -12 508 -12 z "},"€":{"ha":807,"x_min":0,"x_max":751,"o":"m 463 -14 q 319 22 383 -14 q 207 126 254 58 q 135 289 160 194 q 110 501 110 383 q 135 714 110 619 q 208 875 161 808 q 318 978 254 942 q 461 1014 382 1014 q 597 984 536 1014 q 698 897 658 954 q 750 761 738 840 l 643 761 q 583 878 632 838 q 463 918 535 918 q 332 869 388 918 q 247 726 276 819 q 217 503 217 633 q 247 276 217 371 q 333 132 278 182 q 463 82 388 82 q 583 123 535 82 q 643 239 632 164 l 751 239 q 699 103 739 160 q 598 16 658 46 q 463 -14 538 -14 m 0 551 l 17 639 l 601 639 l 585 551 l 0 551 m 0 364 l 17 451 l 568 451 l 551 364 l 0 364 z "},"£":{"ha":692,"x_min":19,"x_max":631,"o":"m 60 0 l 60 93 q 137 263 115 193 q 158 386 158 333 q 144 479 158 439 q 110 558 129 519 q 78 640 92 596 q 64 746 64 685 q 96 888 64 828 q 189 981 128 949 q 338 1014 250 1014 q 490 979 426 1014 q 590 882 554 944 q 631 738 626 819 l 528 738 q 472 874 521 826 q 343 921 424 921 q 213 872 257 921 q 168 742 168 824 q 181 648 168 690 q 212 567 194 606 q 242 487 229 529 q 256 393 256 444 q 227 247 256 331 q 122 43 199 163 l 113 93 l 606 93 l 606 0 l 60 0 m 19 433 l 19 519 l 517 519 l 517 433 l 19 433 z "},"¥":{"ha":708,"x_min":25,"x_max":683,"o":"m 301 0 l 301 460 l 25 1000 l 147 1000 l 382 526 l 338 526 l 571 1000 l 683 1000 l 407 460 l 407 0 l 301 0 m 54 364 l 54 451 l 656 451 l 656 364 l 54 364 m 308 551 l 54 551 l 54 639 l 267 639 l 308 551 m 460 639 l 656 639 l 656 551 l 415 551 l 460 639 z "},"+":{"ha":738,"x_min":83,"x_max":654,"o":"m 325 213 l 325 819 l 414 819 l 414 213 l 325 213 m 83 472 l 83 558 l 654 558 l 654 472 l 83 472 z "},"−":{"ha":738,"x_min":83,"x_max":654,"o":"m 83 472 l 83 558 l 654 558 l 654 472 l 83 472 z "},"×":{"ha":738,"x_min":99,"x_max":639,"o":"m 578 244 l 99 726 l 160 788 l 639 306 l 578 244 m 160 244 l 99 306 l 578 788 l 639 726 l 160 244 z "},"÷":{"ha":738,"x_min":83,"x_max":654,"o":"m 83 472 l 83 558 l 654 558 l 654 472 l 83 472 m 369 671 q 315 692 338 671 q 293 747 293 713 q 315 801 293 781 q 369 822 338 822 q 422 801 399 822 q 444 747 444 781 q 422 692 444 713 q 369 671 399 671 m 369 208 q 315 230 338 208 q 293 286 293 251 q 315 340 293 318 q 369 361 338 361 q 422 340 399 361 q 444 285 444 318 q 422 230 444 251 q 369 208 399 208 z "},"=":{"ha":738,"x_min":83,"x_max":654,"o":"m 83 611 l 83 697 l 654 697 l 654 611 l 83 611 m 83 333 l 83 419 l 654 419 l 654 333 l 83 333 z "},">":{"ha":738,"x_min":83,"x_max":654,"o":"m 83 246 l 83 339 l 588 532 l 588 497 l 83 678 l 83 771 l 654 563 l 654 468 l 83 246 z "},"<":{"ha":738,"x_min":83,"x_max":654,"o":"m 654 785 l 654 692 l 150 499 l 150 533 l 654 353 l 654 260 l 83 468 l 83 563 l 654 785 z "},"~":{"ha":738,"x_min":60,"x_max":678,"o":"m 514 415 q 594 432 561 415 q 649 482 628 449 q 678 564 671 515 l 606 564 q 577 510 599 528 q 524 493 556 493 q 456 506 490 493 q 385 535 422 518 q 308 565 349 553 q 222 578 268 578 q 144 561 178 578 q 90 512 110 544 q 60 429 69 479 l 133 429 q 162 483 140 465 q 215 500 183 500 q 284 488 250 500 q 353 458 318 475 q 428 428 388 440 q 514 415 468 415 z "},"^":{"ha":738,"x_min":126,"x_max":611,"o":"m 207 682 l 126 682 l 317 1028 l 421 1028 l 611 682 l 531 682 l 347 971 l 390 971 l 207 682 z "},"%":{"ha":972,"x_min":46,"x_max":926,"o":"m 92 0 l 783 1000 l 888 1000 l 194 0 l 92 0 m 722 -14 q 622 13 668 -14 q 549 96 576 40 q 521 236 521 151 q 548 376 521 321 q 622 458 575 431 q 722 485 668 485 q 826 458 779 485 q 899 376 872 431 q 926 236 926 321 q 898 96 926 151 q 823 13 869 40 q 722 -14 776 -14 m 722 61 q 804 107 772 61 q 836 238 836 153 q 804 365 836 321 q 722 410 772 410 q 642 366 672 410 q 611 238 611 322 q 642 106 611 151 q 722 61 672 61 m 249 515 q 147 542 193 515 q 74 625 101 569 q 46 765 46 681 q 74 905 46 850 q 147 987 101 960 q 249 1014 193 1014 q 351 987 306 1014 q 424 905 397 960 q 451 765 451 850 q 423 625 451 681 q 349 542 394 569 q 249 515 303 515 m 249 590 q 330 635 299 590 q 361 767 361 681 q 330 895 361 851 q 249 939 299 939 q 167 895 197 939 q 136 767 136 851 q 167 636 136 682 q 249 590 197 590 z "},"‰":{"ha":1111,"x_min":42,"x_max":1069,"o":"m 225 515 q 134 542 176 515 q 67 625 92 569 q 42 765 42 681 q 67 905 42 850 q 133 987 92 960 q 225 1014 175 1014 q 356 953 303 1014 q 410 765 410 893 q 384 625 410 681 q 317 542 358 569 q 225 515 275 515 m 225 585 q 298 631 269 585 q 326 767 326 678 q 299 899 326 853 q 225 944 271 944 q 152 899 179 944 q 125 767 125 854 q 152 631 125 678 q 225 585 179 585 m 78 0 l 688 1000 l 783 1000 l 174 0 l 78 0 m 625 -14 q 538 13 579 -14 q 473 96 497 40 q 449 236 449 151 q 473 376 449 321 q 538 458 497 431 q 625 485 578 485 q 743 424 697 485 q 789 236 789 363 q 742 47 789 108 q 625 -14 694 -14 m 625 56 q 693 102 667 56 q 719 238 719 149 q 694 369 719 324 q 625 415 668 415 q 557 370 582 415 q 532 238 532 325 q 557 102 532 149 q 625 56 582 56 m 893 56 q 962 102 936 56 q 988 238 988 149 q 962 370 988 325 q 893 415 936 415 q 825 369 851 415 q 799 238 799 324 q 826 102 799 149 q 893 56 853 56 m 893 -14 q 776 47 824 -14 q 729 236 729 108 q 776 424 729 363 q 893 485 822 485 q 981 458 940 485 q 1045 376 1021 431 q 1069 236 1069 321 q 1045 96 1069 151 q 981 13 1021 40 q 893 -14 940 -14 z "},"↑":{"ha":1083,"x_min":83,"x_max":1000,"o":"m 496 54 l 496 850 l 531 814 l 83 369 l 83 497 l 542 953 l 1000 497 l 1000 368 l 553 814 l 588 850 l 588 54 l 496 54 z "},"↗":{"ha":910,"x_min":88,"x_max":826,"o":"m 157 265 l 719 828 l 718 778 l 88 781 l 179 871 l 825 868 l 826 222 l 735 131 l 733 763 l 785 763 l 221 201 l 157 265 z "},"→":{"ha":1065,"x_min":83,"x_max":982,"o":"m 83 546 l 879 546 l 843 511 l 399 958 l 526 958 l 982 500 l 526 42 l 397 42 l 843 489 l 879 454 l 83 454 l 83 546 z "},"↘":{"ha":911,"x_min":86,"x_max":828,"o":"m 221 799 l 785 236 l 733 236 l 736 867 l 828 776 l 824 131 l 178 129 l 86 219 l 718 221 l 719 171 l 157 735 l 221 799 z "},"↓":{"ha":1083,"x_min":83,"x_max":1000,"o":"m 496 946 l 588 946 l 588 150 l 553 186 l 1000 632 l 1000 503 l 542 47 l 83 503 l 83 631 l 531 186 l 496 150 l 496 946 z "},"↙":{"ha":910,"x_min":83,"x_max":821,"o":"m 753 735 l 189 172 l 190 222 l 821 219 l 731 129 l 85 132 l 83 778 l 174 869 l 175 238 l 125 238 l 688 799 l 753 735 z "},"←":{"ha":1065,"x_min":83,"x_max":982,"o":"m 982 454 l 186 454 l 222 489 l 667 42 l 539 42 l 83 500 l 539 958 l 668 958 l 222 511 l 186 546 l 982 546 l 982 454 z "},"↖":{"ha":911,"x_min":83,"x_max":824,"o":"m 689 201 l 126 764 l 176 764 l 175 133 l 83 224 l 86 869 l 732 871 l 824 781 l 193 779 l 192 829 l 754 265 l 689 201 z "},"↔":{"ha":1394,"x_min":83,"x_max":1311,"o":"m 539 42 l 83 500 l 539 958 l 667 958 l 257 546 l 1138 546 l 728 958 l 857 958 l 1311 500 l 856 42 l 728 42 l 1138 454 l 257 454 l 668 42 l 539 42 z "},"↕":{"ha":1083,"x_min":83,"x_max":1000,"o":"m 542 -114 l 83 340 l 83 469 l 496 60 l 496 940 l 83 531 l 83 660 l 542 1114 l 1000 658 l 1000 529 l 588 940 l 588 60 l 1000 471 l 1000 342 l 542 -114 z "},"̈":{"ha":0,"x_min":83,"x_max":494,"o":"m 372 875 l 372 1000 l 494 1000 l 494 875 l 372 875 m 83 875 l 83 1000 l 206 1000 l 206 875 l 83 875 z "},"̇":{"ha":0,"x_min":83,"x_max":206,"o":"m 83 875 l 83 1000 l 206 1000 l 206 875 l 83 875 z "},"̀":{"ha":0,"x_min":83,"x_max":369,"o":"m 279 810 l 83 1028 l 228 1028 l 369 810 l 279 810 z "},"́":{"ha":0,"x_min":83,"x_max":369,"o":"m 174 810 l 83 810 l 225 1028 l 369 1028 l 174 810 z "},"̋":{"ha":0,"x_min":83,"x_max":529,"o":"m 163 810 l 83 810 l 164 1028 l 286 1028 l 163 810 m 406 810 l 326 810 l 407 1028 l 529 1028 l 406 810 z "},"̂":{"ha":0,"x_min":83,"x_max":539,"o":"m 83 810 l 258 1028 l 364 1028 l 539 810 l 458 810 l 264 1000 l 360 1000 l 165 810 l 83 810 z "},"̌":{"ha":0,"x_min":83,"x_max":539,"o":"m 258 810 l 83 1028 l 165 1028 l 360 838 l 264 838 l 458 1028 l 539 1028 l 364 810 l 258 810 z "},"̆":{"ha":0,"x_min":83,"x_max":496,"o":"m 289 804 q 186 830 233 804 q 111 906 139 856 q 83 1028 83 956 l 157 1028 q 192 925 157 961 q 289 889 228 889 q 386 925 351 889 q 421 1028 421 961 l 496 1028 q 467 906 496 956 q 393 830 439 856 q 289 804 347 804 z "},"̊":{"ha":0,"x_min":83,"x_max":382,"o":"m 233 779 q 126 823 169 779 q 83 929 83 867 q 126 1034 83 990 q 233 1078 169 1078 q 340 1034 297 1078 q 382 929 382 990 q 340 823 382 867 q 233 779 297 779 m 233 842 q 294 867 271 842 q 317 929 317 893 q 293 990 317 965 q 233 1015 269 1015 q 172 990 196 1015 q 149 929 149 965 q 172 867 149 893 q 233 842 196 842 z "},"̃":{"ha":0,"x_min":83,"x_max":549,"o":"m 413 829 q 348 844 375 829 q 299 877 321 858 q 258 910 278 896 q 213 925 238 925 q 169 906 186 925 q 153 843 153 886 l 83 843 q 101 931 83 896 q 150 985 118 967 q 222 1003 182 1003 q 288 988 261 1003 q 334 955 314 974 q 374 922 354 936 q 418 907 393 907 q 463 926 446 907 q 479 989 479 946 l 549 989 q 531 902 549 938 q 483 848 514 867 q 413 829 451 829 z "},"̄":{"ha":0,"x_min":83,"x_max":507,"o":"m 83 896 l 83 968 l 507 968 l 507 896 l 83 896 z "},"̒":{"ha":0,"x_min":90,"x_max":229,"o":"m 90 807 l 90 910 q 124 1031 90 981 q 229 1103 157 1082 l 229 1049 q 171 1007 190 1035 q 151 935 151 979 l 113 942 l 229 942 l 229 807 l 90 807 z "},"̦":{"ha":0,"x_min":90,"x_max":229,"o":"m 90 -394 l 90 -340 q 149 -299 129 -326 q 168 -228 168 -271 l 207 -233 l 90 -233 l 90 -99 l 229 -99 l 229 -203 q 195 -324 229 -274 q 90 -394 161 -374 z "},"̧":{"ha":0,"x_min":83,"x_max":374,"o":"m 228 -299 q 125 -266 164 -299 q 83 -181 86 -233 l 153 -181 q 178 -221 156 -208 q 232 -233 201 -233 q 281 -220 261 -233 q 301 -185 301 -207 q 275 -140 301 -158 q 182 -118 249 -121 l 211 17 l 282 17 l 263 -67 q 349 -112 324 -79 q 374 -183 374 -144 q 333 -269 374 -239 q 228 -299 292 -299 z "},"̨":{"ha":0,"x_min":83,"x_max":293,"o":"m 194 -300 q 113 -270 142 -300 q 83 -193 83 -240 q 133 -75 83 -132 q 260 24 183 -18 l 290 0 q 193 -89 229 -44 q 157 -183 157 -133 q 170 -222 157 -208 q 203 -235 183 -235 q 253 -212 231 -235 l 293 -262 q 250 -290 274 -281 q 194 -300 226 -300 z "},"¨":{"ha":578,"x_min":83,"x_max":494,"o":"m 372 875 l 372 1000 l 494 1000 l 494 875 l 372 875 m 83 875 l 83 1000 l 206 1000 l 206 875 l 83 875 z "},"˙":{"ha":289,"x_min":83,"x_max":206,"o":"m 83 875 l 83 1000 l 206 1000 l 206 875 l 83 875 z "},"`":{"ha":492,"x_min":83,"x_max":369,"o":"m 279 810 l 83 1028 l 228 1028 l 369 810 l 279 810 z "},"´":{"ha":492,"x_min":83,"x_max":369,"o":"m 174 810 l 83 810 l 225 1028 l 369 1028 l 174 810 z "},"˝":{"ha":575,"x_min":83,"x_max":529,"o":"m 163 810 l 83 810 l 164 1028 l 286 1028 l 163 810 m 406 810 l 326 810 l 407 1028 l 529 1028 l 406 810 z "},"ˆ":{"ha":601,"x_min":83,"x_max":539,"o":"m 83 810 l 258 1028 l 364 1028 l 539 810 l 458 810 l 264 1000 l 360 1000 l 165 810 l 83 810 z "},"ˇ":{"ha":601,"x_min":83,"x_max":539,"o":"m 258 810 l 83 1028 l 165 1028 l 360 838 l 264 838 l 458 1028 l 539 1028 l 364 810 l 258 810 z "},"˘":{"ha":567,"x_min":83,"x_max":496,"o":"m 289 804 q 186 830 233 804 q 111 906 139 856 q 83 1028 83 956 l 157 1028 q 192 925 157 961 q 289 889 228 889 q 386 925 351 889 q 421 1028 421 961 l 496 1028 q 467 906 496 956 q 393 830 439 856 q 289 804 347 804 z "},"˚":{"ha":465,"x_min":83,"x_max":382,"o":"m 233 779 q 126 823 169 779 q 83 929 83 867 q 126 1034 83 990 q 233 1078 169 1078 q 340 1034 297 1078 q 382 929 382 990 q 340 823 382 867 q 233 779 297 779 m 233 842 q 294 867 271 842 q 317 929 317 893 q 293 990 317 965 q 233 1015 269 1015 q 172 990 196 1015 q 149 929 149 965 q 172 867 149 893 q 233 842 196 842 z "},"˜":{"ha":628,"x_min":83,"x_max":549,"o":"m 413 829 q 348 844 375 829 q 299 877 321 858 q 258 910 278 896 q 213 925 238 925 q 169 906 186 925 q 153 843 153 886 l 83 843 q 101 931 83 896 q 150 985 118 967 q 222 1003 182 1003 q 288 988 261 1003 q 334 955 314 974 q 374 922 354 936 q 418 907 393 907 q 463 926 446 907 q 479 989 479 946 l 549 989 q 531 902 549 938 q 483 848 514 867 q 413 829 451 829 z "},"¯":{"ha":571,"x_min":83,"x_max":507,"o":"m 83 896 l 83 968 l 507 968 l 507 896 l 83 896 z "},"¸":{"ha":418,"x_min":83,"x_max":374,"o":"m 228 -299 q 125 -266 164 -299 q 83 -181 86 -233 l 153 -181 q 178 -221 156 -208 q 232 -233 201 -233 q 281 -220 261 -233 q 301 -185 301 -207 q 275 -140 301 -158 q 182 -118 249 -121 l 211 17 l 282 17 l 263 -67 q 349 -112 324 -79 q 374 -183 374 -144 q 333 -269 374 -239 q 228 -299 292 -299 z "},"˛":{"ha":374,"x_min":83,"x_max":293,"o":"m 194 -300 q 113 -270 142 -300 q 83 -193 83 -240 q 133 -75 83 -132 q 260 24 183 -18 l 290 0 q 193 -89 229 -44 q 157 -183 157 -133 q 170 -222 157 -208 q 203 -235 183 -235 q 253 -212 231 -235 l 293 -262 q 250 -290 274 -281 q 194 -300 226 -300 z "}}}
